<svg width="28" height="22" viewBox="0 0 28 22" fill="none" xmlns="http://www.w3.org/2000/svg">
<path d="M24.9904 9.41175C24.7668 9.23838 24.4951 9.12687 24.2065 9.08996C23.9179 9.05305 23.6239 9.09222 23.3581 9.203L18.4122 11.2452L15.5386 6.43474C15.4012 6.21015 15.2022 6.02338 14.9618 5.89345C14.7215 5.76352 14.4483 5.69507 14.1701 5.69507C13.892 5.69507 13.6188 5.76352 13.3785 5.89345C13.1381 6.02338 12.9391 6.21015 12.8017 6.43474L9.92805 11.2452L4.98219 9.203C4.71584 9.09238 4.42148 9.05316 4.13239 9.08977C3.84329 9.12638 3.57099 9.23735 3.34626 9.41014C3.12153 9.58294 2.95334 9.81066 2.86071 10.0676C2.76807 10.3245 2.75468 10.6003 2.82204 10.8639L5.30474 20.6935C5.35222 20.8838 5.4408 21.0632 5.56513 21.2208C5.68946 21.3783 5.84695 21.5108 6.02805 21.6102C6.27324 21.7465 6.55357 21.8186 6.83933 21.819C6.97824 21.8187 7.11643 21.8004 7.24986 21.7645C11.7752 20.6027 16.5553 20.6027 21.0807 21.7645C21.4939 21.8654 21.9333 21.8099 22.3025 21.6102C22.4847 21.5121 22.643 21.38 22.7675 21.2222C22.892 21.0644 22.9799 20.8844 23.0258 20.6935L25.5182 10.8639C25.5849 10.6003 25.5707 10.3245 25.4775 10.0679C25.3842 9.81131 25.2155 9.58402 24.9904 9.41175Z" fill="#7A7A81"/>
<circle cx="14.1693" cy="3.25426" r="3.25426" fill="#7A7A81"/>
<circle cx="14.1697" cy="14.6441" r="2.44069" fill="#CDC4E1"/>
<circle cx="25.966" cy="8.54245" r="2.03391" fill="#7A7A81"/>
<circle cx="2.37278" cy="8.54245" r="2.03391" fill="#7A7A81"/>
<circle cx="8.06751" cy="15.8644" r="1.22035" fill="#CDC4E1"/>
<circle cx="20.2711" cy="15.8644" r="1.22035" fill="#CDC4E1"/>
</svg>
