<svg width="139" height="64" fill="none" xmlns="http://www.w3.org/2000/svg"><g clip-path="url(#a)"><path d="M7.776 56.905C3.48 56.905 0 51.622 0 45.102c0-6.52 3.486-11.805 7.776-11.805 4.29 0 3.478 5.284 3.478 11.805-.007 6.513.812 11.803-3.478 11.803zM25.455 56.64c4.298 0 7.777-5.283 7.777-11.803 0-6.52-3.486-11.805-7.777-11.805-4.29 0-3.477 5.284-3.477 11.805.007 6.513-.812 11.803 3.477 11.803z" fill="#593B9B"/><path d="M26.886 26.352s-6.121 3.764-10.455 3.764c-4.335 0-10.487-3.764-10.487-3.764-1.18 0-2.17 1.096-2.17 2.437v24.957c0 .172.037.335.066.492.539 4.516 5.974 8.063 12.583 8.063 6.61 0 12.03-3.547 12.568-8.056.03-.156.045-.327.045-.491V28.781c-.008-1.333-.968-2.428-2.15-2.428z" fill="#593B9B"/><path d="M26.886 26.352s-6.121 3.764-10.455 3.764c-4.335 0-10.487-3.764-10.487-3.764-1.18 0-2.17 1.096-2.17 2.437v24.957c0 .172.037.335.066.492.54 4.516 5.974 8.063 12.583 8.063 6.61 0 12.03-3.547 12.568-8.056.03-.156.045-.327.045-.491V28.781c-.008-1.333-.968-2.428-2.15-2.428z" fill="#9B89C3"/><path d="M15.153 62.607c0-.992-.76-1.826-1.743-1.826-.982 0-1.742.775-1.742 1.766v.842h3.477l.008-.782zM21.142 62.607c0-.992-.687-1.826-1.669-1.826s-1.669.775-1.669 1.766v.842h3.338v-.782z" fill="#7B2C2D"/><path d="M27.359 38.678a4.883 4.883 0 0 1-.21 1.427c-.07.234-.158.466-.261.695a6.02 6.02 0 0 1-.362.675c-.138.221-.29.438-.46.65a7.465 7.465 0 0 1-.552.615c-.2.199-.413.39-.641.576a9.687 9.687 0 0 1-.721.531 10.981 10.981 0 0 1-1.66.91 13.834 13.834 0 0 1-1.893.676 15.442 15.442 0 0 1-3.117.52 15.817 15.817 0 0 1-2.147 0 15.49 15.49 0 0 1-3.117-.52 13.969 13.969 0 0 1-1.894-.677 11.438 11.438 0 0 1-1.66-.909 9.673 9.673 0 0 1-.72-.531 8.625 8.625 0 0 1-.642-.576c-.199-.2-.383-.405-.552-.616a6.57 6.57 0 0 1-.459-.649 5.696 5.696 0 0 1-.623-1.37 4.882 4.882 0 0 1-.158-2.143 5.153 5.153 0 0 1 .42-1.406c.103-.23.223-.454.361-.675.137-.222.29-.438.459-.65.169-.21.353-.416.552-.615.2-.199.414-.391.641-.576a9.646 9.646 0 0 1 1.518-1.013c.277-.152.564-.295.863-.427.298-.134.606-.256.922-.37a13.915 13.915 0 0 1 1.984-.548 15.978 15.978 0 0 1 3.178-.314 15.882 15.882 0 0 1 2.136.14 15.314 15.314 0 0 1 2.054.416 13.782 13.782 0 0 1 1.894.676 11.069 11.069 0 0 1 1.66.908c.253.17.494.347.721.532.228.185.442.377.64.576.2.2.384.404.553.616.17.211.322.427.46.649a6.1 6.1 0 0 1 .362.675 5.413 5.413 0 0 1 .418 1.406c.036.237.053.477.053.716z" fill="#CDC4E1"/><path d="M11.44 39.691a1.01 1.01 0 0 1-.617.93.99.99 0 0 1-1.302-.545 1.01 1.01 0 0 1 .921-1.39.985.985 0 0 1 .92.62c.051.123.077.252.077.385zM23.226 39.543a1.011 1.011 0 0 1-.616.93.993.993 0 0 1-1.303-.545 1.01 1.01 0 0 1 .54-1.314.976.976 0 0 1 .763 0 .986.986 0 0 1 .54.544c.05.123.076.252.076.385z" fill="#343A46"/><path d="M29.02 28.781c0-1.34-.967-2.435-2.148-2.435 0 0-6.13 3.762-10.463 3.762-4.335 0-10.465-3.756-10.465-3.756-1.18 0-2.148 1.096-2.148 2.437 0 0 9.592 13.764 12.613 13.764 3.02-.007 12.612-13.772 12.612-13.772zM13.883 53.352c-1.58 0-2.865-1.432-2.865-3.197 0-.21.163-.373.369-.373.207 0 .369.163.369.373 0 1.348.953 2.45 2.127 2.45s2.126-1.102 2.126-2.45c0-.21.163-.373.37-.373s.369.163.369.373c0 1.758-1.285 3.197-2.865 3.197zM23.844 50.572c-1.58 0-2.865-1.431-2.865-3.197 0-.21.163-.373.37-.373.206 0 .368.164.368.373 0 1.348.953 2.451 2.127 2.451s2.127-1.103 2.127-2.451c0-.21.163-.373.369-.373.207 0 .37.164.37.373 0 1.766-1.286 3.197-2.866 3.197zM17.9 58.68c-1.58 0-2.865-1.431-2.865-3.198 0-.208.163-.372.369-.372.207 0 .369.164.369.372 0 1.35.953 2.452 2.127 2.452s2.126-1.102 2.126-2.452c0-.208.163-.372.37-.372s.369.164.369.372c0 1.759-1.285 3.197-2.865 3.197z" fill="#593B9B"/><path d="M22.877 58.68c-1.58 0-2.865-1.431-2.865-3.198 0-.208.162-.372.37-.372.206 0 .369.164.369.372 0 1.35.952 2.452 2.126 2.452s2.127-1.102 2.127-2.452c0-.208.162-.372.37-.372.205 0 .368.164.368.372.007 1.759-1.284 3.197-2.865 3.197zM8.751 53.352c-1.58 0-2.865-1.432-2.865-3.197 0-.21.162-.373.37-.373.206 0 .369.163.369.373 0 1.348.952 2.45 2.126 2.45s2.127-1.102 2.127-2.45c0-.21.162-.373.37-.373.205 0 .368.163.368.373 0 1.758-1.284 3.197-2.865 3.197z" fill="#593B9B"/><path d="M12.406 39.625c1.64 1.78 3.117 4.091 4.01 4.083.878-.007 2.423-2.444 4.01-4.083h-8.02z" fill="#7B2C2D"/><path d="M15.923 11.74c.015-2.943.11-4.97 2.401-7.052 2.47-2.245 4.934-2.7 8.18-2.706 4.157-.006 8.21.514 12.369.514 1.764 0 3.687.223 5.426-.11C46.282 2.008 47.896.666 49.593 0c-2.09 4.993-8.507 4.766-8.507 4.766s.781.936 4.419 1.207C38.893 8.717 33.666 7.98 33.666 7.98s.359 2.319 4.556 2.864c-.053-.012-2.61.865-6.608.76-1.073-.029-2.3-.261-3.346-.543-1.624-.437-3.058-1.29-4.56-2.034-1.415-.7-2.966-1.358-4.546-.801-2.014.709-2.235 2.421-3.07 4.027l-.17-.514z" fill="#EF2B38"/><path d="M28.456 40.947c.137-1.107.212-2.248.212-3.416 0-10.179-5.464-18.427-12.205-18.427-6.74 0-12.2 8.248-12.2 18.427 0 1.164.07 2.306.21 3.412C2.25 38.08.914 34.409.914 30.406c0-9.142 6.965-16.553 15.549-16.553 8.588 0 15.552 7.411 15.552 16.553 0 4.007-1.334 7.678-3.559 10.54z" fill="#7A7C81"/><path d="M18.338 18.073c0 1.238-.838 2.241-1.873 2.241-1.036 0-1.874-1.003-1.874-2.24v-4.882c0-1.238.838-2.24 1.874-2.24 1.035 0 1.873 1.002 1.873 2.24v4.881z" fill="#7A7C81"/><path d="M30.8 21.32c-2.89-.667-11.152-2.509-14.335-2.509-3.184 0-11.446 1.842-14.335 2.51-.562.13-1.043.746-1.077 1.374l-.455 8.518c-.034.63.396 1.236.96 1.356 3.173.675 12.793 2.67 14.907 2.566 2.113.105 11.733-1.891 14.908-2.566.562-.12.993-.726.959-1.356l-.455-8.518c-.035-.628-.516-1.245-1.078-1.374z" fill="#BCBCBE"/><path d="M15.566 29.258c0 .963-.653 1.743-1.457 1.743s-1.457-.78-1.457-1.743v-4.655c0-.962.653-1.743 1.457-1.743s1.457.782 1.457 1.743v4.655z" fill="#63686D"/><path d="M14.109 30.45c-.55 0-.997-.535-.997-1.192v-4.655c0-.658.447-1.193.997-1.193.549 0 .997.535.997 1.193v4.655c0 .657-.448 1.193-.997 1.193z" fill="#3C3C3E"/><path d="M11.012 29.258c0 .963-.651 1.743-1.456 1.743-.805 0-1.457-.78-1.457-1.743v-4.655c0-.962.652-1.743 1.457-1.743s1.457.782 1.457 1.743v4.655z" fill="#63686D"/><path d="M9.556 30.45c-.55 0-.997-.535-.997-1.192v-4.655c0-.658.447-1.193.997-1.193s.996.535.996 1.193v4.655c0 .657-.447 1.193-.996 1.193z" fill="#3C3C3E"/><path d="M6.46 29.258c0 .963-.652 1.743-1.457 1.743s-1.456-.78-1.456-1.743v-4.655c0-.962.651-1.743 1.456-1.743.805 0 1.456.782 1.456 1.743v4.655z" fill="#63686D"/><path d="M5.003 30.45c-.55 0-.997-.535-.997-1.192v-4.655c0-.658.447-1.193.997-1.193S6 23.945 6 24.603v4.655c0 .657-.448 1.193-.997 1.193z" fill="#3C3C3E"/><path d="M20.119 29.258c0 .963-.652 1.743-1.457 1.743-.804 0-1.456-.78-1.456-1.743v-4.655c0-.962.652-1.743 1.456-1.743.805 0 1.457.782 1.457 1.743v4.655z" fill="#63686D"/><path d="M18.662 30.45c-.55 0-.996-.535-.996-1.192v-4.655c0-.658.447-1.193.996-1.193.55 0 .997.535.997 1.193v4.655c0 .657-.448 1.193-.997 1.193z" fill="#3C3C3E"/><path d="M24.672 29.258c0 .963-.653 1.743-1.457 1.743-.803 0-1.456-.78-1.456-1.743v-4.655c0-.962.653-1.743 1.456-1.743.804 0 1.457.782 1.457 1.743v4.655z" fill="#63686D"/><path d="M23.215 30.45c-.55 0-.997-.535-.997-1.192v-4.655c0-.658.448-1.193.997-1.193.55 0 .997.535.997 1.193v4.655c0 .657-.448 1.193-.997 1.193z" fill="#3C3C3E"/><path d="M29.224 29.258c0 .963-.651 1.743-1.456 1.743-.805 0-1.457-.78-1.457-1.743v-4.655c0-.962.652-1.743 1.457-1.743s1.456.782 1.456 1.743v4.655z" fill="#63686D"/><path d="M27.768 30.45c-.55 0-.997-.535-.997-1.192v-4.655c0-.658.447-1.193.997-1.193s.997.535.997 1.193v4.655c0 .657-.447 1.193-.997 1.193z" fill="#3C3C3E"/><path d="M38.602 3.818c-.253.018-.619.051-1.067.053-.895.027-2.114-.017-3.41-.136-1.296-.115-2.672-.282-3.9-.394-.294-.028-.578-.051-.85-.071a20.496 20.496 0 0 0-1.73-.082 13 13 0 0 0-.395-.001h-.037a14.552 14.552 0 0 0-1.166.063c-.004 0-.007 0-.01.002h-.014c-.24.024-.474.05-.697.083l-.105.013c-.285.032-.584.099-.894.151l-.233.044-.234.058-.475.12c-.324.081-.635.17-.961.27-.646.2-1.294.445-1.893.747-.6.3-1.146.661-1.595 1.056-.45.392-.798.814-1.056 1.19-.252.381-.42.714-.521.95l-.153.37.188-.351c.123-.224.32-.536.6-.883.287-.34.658-.713 1.121-1.047a7.392 7.392 0 0 1 1.605-.862c.593-.237 1.229-.417 1.865-.558.314-.07.643-.135.953-.188l.462-.08.226-.04.226-.025c.25-.024.487-.055.72-.075a36.97 36.97 0 0 1 2.091-.082l.01-.001h.057c.664-.007 1.299-.006 1.876-.007.309.003.634.008.975.015 1.22.025 2.611.078 3.924.077 1.313.005 2.545-.068 3.44-.182.448-.045.81-.115 1.062-.158L39 3.789l-.397.029z" fill="#C41F26"/><path d="M10.452 16.524c-.008-.02.03-.059.107-.114.077-.054.197-.117.346-.192l.118-.056c.04-.02.083-.04.128-.058.09-.037.188-.076.291-.115l.158-.06c.054-.019.11-.035.167-.054.115-.036.233-.072.355-.107.122-.035.284-.07.472-.114.047-.01.097-.022.147-.03l.156-.03c.107-.018.22-.038.336-.06a15.46 15.46 0 0 1 1.68-.17c.061-.004.123-.005.182-.007l.346-.01c.222-.004.425 0 .597 0 .341.008.56.015.56.015l-.56.032c-.17.015-.37.029-.591.05l-.343.039c-.058.007-.119.012-.18.02l-.181.026c-.492.062-1.01.165-1.463.26a41.522 41.522 0 0 1-.477.115c-.048.011-.095.025-.14.037l-.46.125a35.87 35.87 0 0 1-.348.099l-.166.045c-.054.018-.107.033-.158.049-.102.031-.2.06-.293.086-.046.012-.09.026-.133.04l-.123.038a4.978 4.978 0 0 1-.376.098c-.09.02-.145.023-.154.003z" fill="#63686D"/><path d="M13.964 15.544c-.003-.02-.056-.035-.15-.04a3.884 3.884 0 0 0-.524.03c-.044.005-.09.012-.139.02-.096.014-.2.03-.308.049a4.617 4.617 0 0 0-.337.07c-.116.027-.237.055-.36.088-.122.035-.28.085-.464.143a2.368 2.368 0 0 0-.141.05l-.15.055c-.102.039-.21.077-.32.12l-.334.146-.172.076-.172.085c-.114.056-.23.113-.343.172l-.332.188c-.056.03-.11.06-.162.093l-.154.098-.294.188c-.182.13-.346.25-.485.351l-.434.356.461-.317c.147-.09.32-.194.51-.308l.303-.161.16-.085c.054-.027.11-.053.165-.079l.34-.16c.116-.05.234-.096.35-.143l.173-.072.173-.062.337-.121c.11-.036.218-.068.32-.1l.148-.047c.048-.015.094-.03.14-.041.183-.05.339-.093.458-.128.48-.126.915-.239 1.231-.32a4.04 4.04 0 0 0 .374-.114c.088-.032.135-.058.132-.08zM29.538 21.763c-.014.04-.202.013-.503-.029-.301-.043-.72-.1-1.18-.18a31.53 31.53 0 0 1-.444-.081c-.087-.019-.182-.037-.28-.057-.1-.02-.204-.04-.31-.066l-.672-.156c-.116-.028-.233-.053-.347-.084l-.343-.09c-.227-.058-.445-.116-.646-.168l-.537-.152a321.27 321.27 0 0 0-.503-.143l.515.096.546.104.656.113.348.06c.116.022.235.038.35.057l.68.108c.108.018.212.032.312.046l.282.04c.177.026.327.05.443.07.463.08.881.171 1.178.27.299.1.469.201.455.242z" fill="#63686D"/><path d="M26.186 21.093c-.017.082.716.306 1.645.457l.199.032c.073.013.155.025.243.039.176.027.378.058.59.096.211.038.436.084.658.15.22.066.437.153.628.27.095.06.185.126.263.2a1.5 1.5 0 0 1 .207.234c.119.165.191.34.24.49.026.076.041.147.057.21a4.567 4.567 0 0 1 .05.304s-.004-.052-.007-.143a8.17 8.17 0 0 0-.016-.167c-.009-.063-.019-.137-.038-.216a1.78 1.78 0 0 0-.205-.532 1.633 1.633 0 0 0-.465-.507 2.736 2.736 0 0 0-.647-.343 5.808 5.808 0 0 0-.672-.205 14.681 14.681 0 0 0-.836-.18l-.198-.036c-.925-.15-1.679-.238-1.696-.153zM5.584 32.519c-.016.084-.857-.025-1.876-.244-.106-.022-.24-.053-.388-.087-.152-.034-.327-.068-.517-.115a3.968 3.968 0 0 1-.603-.189 2.02 2.02 0 0 1-.307-.16 1.201 1.201 0 0 1-.27-.247l.006.005a1.417 1.417 0 0 1-.24-.427 2.133 2.133 0 0 1-.1-.451 5.404 5.404 0 0 1-.01-.8c.013-.233.025-.425.027-.562.003-.068.002-.12.003-.157v-.055s0 .02.004.055c.003.036.008.09.01.157.009.136.013.33.02.562.008.232.02.501.07.782.029.138.064.28.122.41.06.132.137.254.234.356l.005.005c.065.071.144.132.23.184.091.047.183.09.28.122.192.067.39.108.575.142.186.035.361.061.518.09.16.03.29.057.397.08 1.017.216 1.826.461 1.81.544z" fill="#63686D"/><path d="M1.912 31.607c-.006.008 0 .024.015.048a.556.556 0 0 0 .085.081c.08.061.206.136.37.202.164.065.365.123.587.174l.713.158c.254.055.669.134 1.147.22.479.087 1.019.19 1.532.261l1.917.284L6.39 32.6c-.505-.11-1.036-.249-1.508-.364-.47-.115-.88-.212-1.134-.268-.126-.026-.251-.053-.375-.076-.123-.022-.24-.04-.35-.058a9.913 9.913 0 0 1-.577-.105c-.323-.07-.51-.155-.534-.122z" fill="#63686D"/><path d="M15.923 11.74c.015-2.943.11-4.97 2.401-7.052 2.47-2.245 4.934-2.7 8.18-2.706 4.157-.006 8.21.514 12.369.514 1.764 0 3.687.223 5.426-.11C46.282 2.008 47.896.666 49.593 0c-2.09 4.993-8.507 4.766-8.507 4.766s.781.936 4.419 1.207C38.893 8.717 33.666 7.98 33.666 7.98s.359 2.319 4.556 2.864c-.053-.012-2.61.865-6.608.76-1.073-.029-2.3-.261-3.346-.543-1.624-.437-3.058-1.29-4.56-2.034-1.415-.7-2.966-1.358-4.546-.801-2.014.709-2.235 2.421-3.07 4.027l-.17-.514z" fill="#EF2B38"/><path d="M28.456 40.947c.137-1.107.212-2.248.212-3.416 0-10.179-5.464-18.427-12.205-18.427-6.74 0-12.2 8.248-12.2 18.427 0 1.164.07 2.306.21 3.412C2.25 38.08.914 34.409.914 30.406c0-9.142 6.965-16.553 15.549-16.553 8.588 0 15.552 7.411 15.552 16.553 0 4.007-1.334 7.678-3.559 10.54z" fill="#7A7C81"/><path d="M18.338 18.073c0 1.238-.838 2.241-1.873 2.241-1.036 0-1.874-1.003-1.874-2.24v-4.882c0-1.238.838-2.24 1.874-2.24 1.035 0 1.873 1.002 1.873 2.24v4.881z" fill="#7A7C81"/><path d="M30.8 21.32c-2.89-.667-11.152-2.509-14.335-2.509-3.184 0-11.446 1.842-14.335 2.51-.562.13-1.043.746-1.077 1.374l-.455 8.518c-.034.63.396 1.236.96 1.356 3.173.675 12.793 2.67 14.907 2.566 2.113.105 11.733-1.891 14.908-2.566.562-.12.993-.726.959-1.356l-.455-8.518c-.035-.628-.516-1.245-1.078-1.374z" fill="#BCBCBE"/><path d="M15.566 29.258c0 .963-.653 1.743-1.457 1.743s-1.457-.78-1.457-1.743v-4.655c0-.962.653-1.743 1.457-1.743s1.457.782 1.457 1.743v4.655z" fill="#63686D"/><path d="M14.109 30.45c-.55 0-.997-.535-.997-1.192v-4.655c0-.658.447-1.193.997-1.193.549 0 .997.535.997 1.193v4.655c0 .657-.448 1.193-.997 1.193z" fill="#3C3C3E"/><path d="M11.012 29.258c0 .963-.651 1.743-1.456 1.743-.805 0-1.457-.78-1.457-1.743v-4.655c0-.962.652-1.743 1.457-1.743s1.457.782 1.457 1.743v4.655z" fill="#63686D"/><path d="M9.556 30.45c-.55 0-.997-.535-.997-1.192v-4.655c0-.658.447-1.193.997-1.193s.996.535.996 1.193v4.655c0 .657-.447 1.193-.996 1.193z" fill="#3C3C3E"/><path d="M6.46 29.258c0 .963-.652 1.743-1.457 1.743s-1.456-.78-1.456-1.743v-4.655c0-.962.651-1.743 1.456-1.743.805 0 1.456.782 1.456 1.743v4.655z" fill="#63686D"/><path d="M5.003 30.45c-.55 0-.997-.535-.997-1.192v-4.655c0-.658.447-1.193.997-1.193S6 23.945 6 24.603v4.655c0 .657-.448 1.193-.997 1.193z" fill="#3C3C3E"/><path d="M20.119 29.258c0 .963-.652 1.743-1.457 1.743-.804 0-1.456-.78-1.456-1.743v-4.655c0-.962.652-1.743 1.456-1.743.805 0 1.457.782 1.457 1.743v4.655z" fill="#63686D"/><path d="M18.662 30.45c-.55 0-.996-.535-.996-1.192v-4.655c0-.658.447-1.193.996-1.193.55 0 .997.535.997 1.193v4.655c0 .657-.448 1.193-.997 1.193z" fill="#3C3C3E"/><path d="M24.672 29.258c0 .963-.653 1.743-1.457 1.743-.803 0-1.456-.78-1.456-1.743v-4.655c0-.962.653-1.743 1.456-1.743.804 0 1.457.782 1.457 1.743v4.655z" fill="#63686D"/><path d="M23.215 30.45c-.55 0-.997-.535-.997-1.192v-4.655c0-.658.448-1.193.997-1.193.55 0 .997.535.997 1.193v4.655c0 .657-.448 1.193-.997 1.193z" fill="#3C3C3E"/><path d="M29.224 29.258c0 .963-.651 1.743-1.456 1.743-.805 0-1.457-.78-1.457-1.743v-4.655c0-.962.652-1.743 1.457-1.743s1.456.782 1.456 1.743v4.655z" fill="#63686D"/><path d="M27.768 30.45c-.55 0-.997-.535-.997-1.192v-4.655c0-.658.447-1.193.997-1.193s.997.535.997 1.193v4.655c0 .657-.447 1.193-.997 1.193z" fill="#3C3C3E"/><path d="M38.602 3.818c-.253.018-.619.051-1.067.053-.895.027-2.114-.017-3.41-.136-1.296-.115-2.672-.282-3.9-.394-.294-.028-.578-.051-.85-.071a20.496 20.496 0 0 0-1.73-.082 13 13 0 0 0-.395-.001h-.037a14.552 14.552 0 0 0-1.166.063c-.004 0-.007 0-.01.002h-.014c-.24.024-.474.05-.697.083l-.105.013c-.285.032-.584.099-.894.151l-.233.044-.234.058-.475.12c-.324.081-.635.17-.961.27-.646.2-1.294.445-1.893.747-.6.3-1.146.661-1.595 1.056-.45.392-.798.814-1.056 1.19-.252.381-.42.714-.521.95l-.153.37.188-.351c.123-.224.32-.536.6-.883.287-.34.658-.713 1.121-1.047a7.392 7.392 0 0 1 1.605-.862c.593-.237 1.229-.417 1.865-.558.314-.07.643-.135.953-.188l.462-.08.226-.04.226-.025c.25-.024.487-.055.72-.075a36.97 36.97 0 0 1 2.091-.082l.01-.001h.057c.664-.007 1.299-.006 1.876-.007.309.003.634.008.975.015 1.22.025 2.611.078 3.924.077 1.313.005 2.545-.068 3.44-.182.448-.045.81-.115 1.062-.158L39 3.789l-.397.029z" fill="#C41F26"/><path d="M10.452 16.524c-.008-.02.03-.059.107-.114.077-.054.197-.117.346-.192l.118-.056c.04-.02.083-.04.128-.058.09-.037.188-.076.291-.115l.158-.06c.054-.019.11-.035.167-.054.115-.036.233-.072.355-.107.122-.035.284-.07.472-.114.047-.01.097-.022.147-.03l.156-.03c.107-.018.22-.038.336-.06a15.46 15.46 0 0 1 1.68-.17c.061-.004.123-.005.182-.007l.346-.01c.222-.004.425 0 .597 0 .341.008.56.015.56.015l-.56.032c-.17.015-.37.029-.591.05l-.343.039c-.058.007-.119.012-.18.02l-.181.026c-.492.062-1.01.165-1.463.26a41.522 41.522 0 0 1-.477.115c-.048.011-.095.025-.14.037l-.46.125a35.87 35.87 0 0 1-.348.099l-.166.045c-.054.018-.107.033-.158.049-.102.031-.2.06-.293.086-.046.012-.09.026-.133.04l-.123.038a4.978 4.978 0 0 1-.376.098c-.09.02-.145.023-.154.003z" fill="#63686D"/><path d="M13.964 15.544c-.003-.02-.056-.035-.15-.04a3.884 3.884 0 0 0-.524.03c-.044.005-.09.012-.139.02-.096.014-.2.03-.308.049a4.617 4.617 0 0 0-.337.07c-.116.027-.237.055-.36.088-.122.035-.28.085-.464.143a2.368 2.368 0 0 0-.141.05l-.15.055c-.102.039-.21.077-.32.12l-.334.146-.172.076-.172.085c-.114.056-.23.113-.343.172l-.332.188c-.056.03-.11.06-.162.093l-.154.098-.294.188c-.182.13-.346.25-.485.351l-.434.356.461-.317c.147-.09.32-.194.51-.308l.303-.161.16-.085c.054-.027.11-.053.165-.079l.34-.16c.116-.05.234-.096.35-.143l.173-.072.173-.062.337-.121c.11-.036.218-.068.32-.1l.148-.047c.048-.015.094-.03.14-.041.183-.05.339-.093.458-.128.48-.126.915-.239 1.231-.32a4.04 4.04 0 0 0 .374-.114c.088-.032.135-.058.132-.08zM29.538 21.763c-.014.04-.202.013-.503-.029-.301-.043-.72-.1-1.18-.18a31.53 31.53 0 0 1-.444-.081c-.087-.019-.182-.037-.28-.057-.1-.02-.204-.04-.31-.066l-.672-.156c-.116-.028-.233-.053-.347-.084l-.343-.09c-.227-.058-.445-.116-.646-.168l-.537-.152a321.27 321.27 0 0 0-.503-.143l.515.096.546.104.656.113.348.06c.116.022.235.038.35.057l.68.108c.108.018.212.032.312.046l.282.04c.177.026.327.05.443.07.463.08.881.171 1.178.27.299.1.469.201.455.242z" fill="#63686D"/><path d="M26.186 21.093c-.017.082.716.306 1.645.457l.199.032c.073.013.155.025.243.039.176.027.378.058.59.096.211.038.436.084.658.15.22.066.437.153.628.27.095.06.185.126.263.2a1.5 1.5 0 0 1 .207.234c.119.165.191.34.24.49.026.076.041.147.057.21a4.567 4.567 0 0 1 .05.304s-.004-.052-.007-.143a8.17 8.17 0 0 0-.016-.167c-.009-.063-.019-.137-.038-.216a1.78 1.78 0 0 0-.205-.532 1.633 1.633 0 0 0-.465-.507 2.736 2.736 0 0 0-.647-.343 5.808 5.808 0 0 0-.672-.205 14.681 14.681 0 0 0-.836-.18l-.198-.036c-.925-.15-1.679-.238-1.696-.153zM5.584 32.519c-.016.084-.857-.025-1.876-.244-.106-.022-.24-.053-.388-.087-.152-.034-.327-.068-.517-.115a3.968 3.968 0 0 1-.603-.189 2.02 2.02 0 0 1-.307-.16 1.201 1.201 0 0 1-.27-.247l.006.005a1.417 1.417 0 0 1-.24-.427 2.133 2.133 0 0 1-.1-.451 5.404 5.404 0 0 1-.01-.8c.013-.233.025-.425.027-.562.003-.068.002-.12.003-.157v-.055s0 .02.004.055c.003.036.008.09.01.157.009.136.013.33.02.562.008.232.02.501.07.782.029.138.064.28.122.41.06.132.137.254.234.356l.005.005c.065.071.144.132.23.184.091.047.183.09.28.122.192.067.39.108.575.142.186.035.361.061.518.09.16.03.29.057.397.08 1.017.216 1.826.461 1.81.544z" fill="#63686D"/><path d="M1.912 31.607c-.006.008 0 .024.015.048a.556.556 0 0 0 .085.081c.08.061.206.136.37.202.164.065.365.123.587.174l.713.158c.254.055.669.134 1.147.22.479.087 1.019.19 1.532.261l1.917.284L6.39 32.6c-.505-.11-1.036-.249-1.508-.364-.47-.115-.88-.212-1.134-.268-.126-.026-.251-.053-.375-.076-.123-.022-.24-.04-.35-.058a9.913 9.913 0 0 1-.577-.105c-.323-.07-.51-.155-.534-.122z" fill="#63686D"/><path d="M15.923 11.74c.015-2.943.11-4.97 2.401-7.052 2.47-2.245 4.934-2.7 8.18-2.706 4.157-.006 8.21.514 12.369.514 1.764 0 3.687.223 5.426-.11C46.282 2.008 47.896.666 49.593 0c-2.09 4.993-8.507 4.766-8.507 4.766s.781.936 4.419 1.207C38.893 8.717 33.666 7.98 33.666 7.98s.359 2.319 4.556 2.864c-.053-.012-2.61.865-6.608.76-1.073-.029-2.3-.261-3.346-.543-1.624-.437-3.058-1.29-4.56-2.034-1.415-.7-2.966-1.358-4.546-.801-2.014.709-2.235 2.421-3.07 4.027l-.17-.514z" fill="#EF2B38"/><path d="M28.456 40.947c.137-1.107.212-2.248.212-3.416 0-10.179-5.464-18.427-12.205-18.427-6.74 0-12.2 8.248-12.2 18.427 0 1.164.07 2.306.21 3.412C2.25 38.08.914 34.409.914 30.406c0-9.142 6.965-16.553 15.549-16.553 8.588 0 15.552 7.411 15.552 16.553 0 4.007-1.334 7.678-3.559 10.54z" fill="#7A7C81"/><path d="M18.338 18.073c0 1.238-.838 2.241-1.873 2.241-1.036 0-1.874-1.003-1.874-2.24v-4.882c0-1.238.838-2.24 1.874-2.24 1.035 0 1.873 1.002 1.873 2.24v4.881z" fill="#7A7C81"/><path d="M30.8 21.32c-2.89-.667-11.152-2.509-14.335-2.509-3.184 0-11.446 1.842-14.335 2.51-.562.13-1.043.746-1.077 1.374l-.455 8.518c-.034.63.396 1.236.96 1.356 3.173.675 12.793 2.67 14.907 2.566 2.113.105 11.733-1.891 14.908-2.566.562-.12.993-.726.959-1.356l-.455-8.518c-.035-.628-.516-1.245-1.078-1.374z" fill="#BCBCBE"/><path d="M15.566 29.258c0 .963-.653 1.743-1.457 1.743s-1.457-.78-1.457-1.743v-4.655c0-.962.653-1.743 1.457-1.743s1.457.782 1.457 1.743v4.655z" fill="#63686D"/><path d="M14.109 30.45c-.55 0-.997-.535-.997-1.192v-4.655c0-.658.447-1.193.997-1.193.549 0 .997.535.997 1.193v4.655c0 .657-.448 1.193-.997 1.193z" fill="#3C3C3E"/><path d="M11.012 29.258c0 .963-.651 1.743-1.456 1.743-.805 0-1.457-.78-1.457-1.743v-4.655c0-.962.652-1.743 1.457-1.743s1.457.782 1.457 1.743v4.655z" fill="#63686D"/><path d="M9.556 30.45c-.55 0-.997-.535-.997-1.192v-4.655c0-.658.447-1.193.997-1.193s.996.535.996 1.193v4.655c0 .657-.447 1.193-.996 1.193z" fill="#3C3C3E"/><path d="M6.46 29.258c0 .963-.652 1.743-1.457 1.743s-1.456-.78-1.456-1.743v-4.655c0-.962.651-1.743 1.456-1.743.805 0 1.456.782 1.456 1.743v4.655z" fill="#63686D"/><path d="M5.003 30.45c-.55 0-.997-.535-.997-1.192v-4.655c0-.658.447-1.193.997-1.193S6 23.945 6 24.603v4.655c0 .657-.448 1.193-.997 1.193z" fill="#3C3C3E"/><path d="M20.119 29.258c0 .963-.652 1.743-1.457 1.743-.804 0-1.456-.78-1.456-1.743v-4.655c0-.962.652-1.743 1.456-1.743.805 0 1.457.782 1.457 1.743v4.655z" fill="#63686D"/><path d="M18.662 30.45c-.55 0-.996-.535-.996-1.192v-4.655c0-.658.447-1.193.996-1.193.55 0 .997.535.997 1.193v4.655c0 .657-.448 1.193-.997 1.193z" fill="#3C3C3E"/><path d="M24.672 29.258c0 .963-.653 1.743-1.457 1.743-.803 0-1.456-.78-1.456-1.743v-4.655c0-.962.653-1.743 1.456-1.743.804 0 1.457.782 1.457 1.743v4.655z" fill="#63686D"/><path d="M23.215 30.45c-.55 0-.997-.535-.997-1.192v-4.655c0-.658.448-1.193.997-1.193.55 0 .997.535.997 1.193v4.655c0 .657-.448 1.193-.997 1.193z" fill="#3C3C3E"/><path d="M29.224 29.258c0 .963-.651 1.743-1.456 1.743-.805 0-1.457-.78-1.457-1.743v-4.655c0-.962.652-1.743 1.457-1.743s1.456.782 1.456 1.743v4.655z" fill="#63686D"/><path d="M27.768 30.45c-.55 0-.997-.535-.997-1.192v-4.655c0-.658.447-1.193.997-1.193s.997.535.997 1.193v4.655c0 .657-.447 1.193-.997 1.193z" fill="#3C3C3E"/><path d="M38.602 3.818c-.253.018-.619.051-1.067.053-.895.027-2.114-.017-3.41-.136-1.296-.115-2.672-.282-3.9-.394-.294-.028-.578-.051-.85-.071a20.496 20.496 0 0 0-1.73-.082 13 13 0 0 0-.395-.001h-.037a14.552 14.552 0 0 0-1.166.063c-.004 0-.007 0-.01.002h-.014c-.24.024-.474.05-.697.083l-.105.013c-.285.032-.584.099-.894.151l-.233.044-.234.058-.475.12c-.324.081-.635.17-.961.27-.646.2-1.294.445-1.893.747-.6.3-1.146.661-1.595 1.056-.45.392-.798.814-1.056 1.19-.252.381-.42.714-.521.95l-.153.37.188-.351c.123-.224.32-.536.6-.883.287-.34.658-.713 1.121-1.047a7.392 7.392 0 0 1 1.605-.862c.593-.237 1.229-.417 1.865-.558.314-.07.643-.135.953-.188l.462-.08.226-.04.226-.025c.25-.024.487-.055.72-.075a36.97 36.97 0 0 1 2.091-.082l.01-.001h.057c.664-.007 1.299-.006 1.876-.007.309.003.634.008.975.015 1.22.025 2.611.078 3.924.077 1.313.005 2.545-.068 3.44-.182.448-.045.81-.115 1.062-.158L39 3.789l-.397.029z" fill="#C41F26"/><path d="M10.452 16.524c-.038-.08.69-.483 1.67-.756.245-.066.645-.157 1.11-.234.466-.07.996-.134 1.496-.159.25-.019.492-.02.713-.028.222-.004.425 0 .596 0 .343.008.56.015.56.015l-.559.032-.591.05c-.22.026-.459.047-.704.085a18.14 18.14 0 0 0-1.463.26c-.452.104-.838.212-1.077.277-.954.265-1.717.532-1.75.458z" fill="#A9ADB1"/><path d="M13.964 15.544c-.01-.085-.835-.046-1.818.217-.12.035-.28.085-.464.143-.183.063-.39.142-.61.226l-.335.145c-.056.026-.115.05-.172.076a18.18 18.18 0 0 0-.171.085c-.115.056-.23.114-.344.172-.112.062-.224.126-.332.188-.11.06-.215.125-.316.19-.102.066-.2.13-.294.189l-.485.351-.434.356.462-.317c.146-.088.32-.192.508-.307l.304-.162c.105-.057.213-.113.325-.164.113-.052.226-.106.34-.16l.35-.143.173-.072c.059-.021.117-.041.173-.063.116-.04.229-.08.337-.12.22-.068.427-.135.608-.188.183-.05.339-.093.458-.128.956-.256 1.748-.43 1.737-.514zM29.537 21.763c-.014.041-.203.014-.503-.029-.301-.044-.718-.098-1.18-.182-.232-.042-.604-.12-1.032-.213-.428-.097-.914-.19-1.363-.322l-1.686-.46 1.718.31c.455.092.947.149 1.379.216.431.064.805.123 1.035.165.462.084.881.173 1.178.274.298.1.468.201.454.24z" fill="#A9ADB1"/><path d="M26.186 21.09c-.017.083.72.288 1.645.458.23.045.605.093 1.03.169.423.078.903.185 1.287.421.19.12.353.268.47.433.032.04.053.086.079.126.022.043.052.08.067.125.032.085.075.162.094.24.02.077.04.147.057.208.012.063.02.119.027.163l.023.142-.01-.143c-.003-.045-.006-.102-.012-.167a17.643 17.643 0 0 1-.04-.216c-.012-.08-.047-.164-.073-.256-.013-.046-.04-.089-.06-.135-.023-.046-.041-.095-.07-.14a1.796 1.796 0 0 0-.466-.508c-.394-.29-.891-.44-1.318-.548-.43-.106-.805-.174-1.034-.218-.92-.169-1.679-.238-1.696-.155zM5.584 32.519c-.016.084-.857-.025-1.876-.244-.211-.046-.53-.118-.905-.202a3.968 3.968 0 0 1-.603-.189 2.02 2.02 0 0 1-.307-.16 1.201 1.201 0 0 1-.27-.247l.006.005a1.417 1.417 0 0 1-.24-.427 2.133 2.133 0 0 1-.1-.451 5.404 5.404 0 0 1-.01-.8c.013-.233.025-.426.027-.562.004-.135.003-.212.003-.212s.008.077.015.212c.008.136.012.33.019.562.008.232.02.503.07.782.029.138.064.28.122.41.06.132.137.254.234.356l.005.005c.065.071.144.132.23.184.091.047.183.09.28.122.192.067.39.108.575.142l.518.09c.16.03.29.057.397.08 1.017.216 1.826.461 1.81.544z" fill="#A9ADB1"/><path d="M1.913 31.607c-.029.035.137.2.47.33.163.066.364.124.586.175.22.049.46.103.713.158.255.055.669.134 1.147.22.479.087 1.019.19 1.532.261l1.917.284L6.39 32.6c-.505-.11-1.036-.249-1.508-.364-.47-.115-.88-.212-1.134-.268-.126-.026-.251-.053-.375-.076-.123-.022-.24-.04-.35-.058a9.913 9.913 0 0 1-.577-.105c-.323-.07-.51-.155-.534-.122z" fill="#A9ADB1"/></g><path d="m53.6 51-4.38-7.95h-1.23V51h-5.13V29.94h8.61c1.66 0 3.07.29 4.23.87 1.18.58 2.06 1.38 2.64 2.4.58 1 .87 2.12.87 3.36 0 1.4-.4 2.65-1.2 3.75-.78 1.1-1.94 1.88-3.48 2.34L59.39 51H53.6zm-5.61-11.58h3.18c.94 0 1.64-.23 2.1-.69.48-.46.72-1.11.72-1.95 0-.8-.24-1.43-.72-1.89-.46-.46-1.16-.69-2.1-.69h-3.18v5.22zm30.22 2.94c0 .48-.03.98-.09 1.5H66.51c.08 1.04.41 1.84.99 2.4.6.54 1.33.81 2.19.81 1.28 0 2.17-.54 2.67-1.62h5.46c-.28 1.1-.79 2.09-1.53 2.97-.72.88-1.63 1.57-2.73 2.07-1.1.5-2.33.75-3.69.75-1.64 0-3.1-.35-4.38-1.05-1.28-.7-2.28-1.7-3-3-.72-1.3-1.08-2.82-1.08-4.56 0-1.74.35-3.26 1.05-4.56.72-1.3 1.72-2.3 3-3 1.28-.7 2.75-1.05 4.41-1.05 1.62 0 3.06.34 4.32 1.02 1.26.68 2.24 1.65 2.94 2.91.72 1.26 1.08 2.73 1.08 4.41zm-5.25-1.35c0-.88-.3-1.58-.9-2.1-.6-.52-1.35-.78-2.25-.78-.86 0-1.59.25-2.19.75-.58.5-.94 1.21-1.08 2.13h6.42zm6.937 1.59c0-1.72.32-3.23.96-4.53.66-1.3 1.55-2.3 2.67-3 1.12-.7 2.37-1.05 3.75-1.05 1.1 0 2.1.23 3 .69.92.46 1.64 1.08 2.16 1.86V28.8h5.13V51h-5.13v-2.4c-.48.8-1.17 1.44-2.07 1.92-.88.48-1.91.72-3.09.72-1.38 0-2.63-.35-3.75-1.05-1.12-.72-2.01-1.73-2.67-3.03-.64-1.32-.96-2.84-.96-4.56zm12.54.03c0-1.28-.36-2.29-1.08-3.03-.7-.74-1.56-1.11-2.58-1.11s-1.89.37-2.61 1.11c-.7.72-1.05 1.72-1.05 3s.35 2.3 1.05 3.06c.72.74 1.59 1.11 2.61 1.11 1.02 0 1.88-.37 2.58-1.11.72-.74 1.08-1.75 1.08-3.03zm7.821-.03c0-1.72.32-3.23.96-4.53.66-1.3 1.55-2.3 2.67-3 1.12-.7 2.37-1.05 3.75-1.05 1.1 0 2.1.23 3 .69.92.46 1.64 1.08 2.16 1.86V28.8h5.13V51h-5.13v-2.4c-.48.8-1.17 1.44-2.07 1.92-.88.48-1.91.72-3.09.72-1.38 0-2.63-.35-3.75-1.05-1.12-.72-2.01-1.73-2.67-3.03-.64-1.32-.96-2.84-.96-4.56zm12.54.03c0-1.28-.36-2.29-1.08-3.03-.7-.74-1.56-1.11-2.58-1.11s-1.89.37-2.61 1.11c-.7.72-1.05 1.72-1.05 3s.35 2.3 1.05 3.06c.72.74 1.59 1.11 2.61 1.11 1.02 0 1.88-.37 2.58-1.11.72-.74 1.08-1.75 1.08-3.03zm16.461 8.61c-1.64 0-3.12-.35-4.44-1.05-1.3-.7-2.33-1.7-3.09-3-.74-1.3-1.11-2.82-1.11-4.56 0-1.72.38-3.23 1.14-4.53.76-1.32 1.8-2.33 3.12-3.03 1.32-.7 2.8-1.05 4.44-1.05 1.64 0 3.12.35 4.44 1.05 1.32.7 2.36 1.71 3.12 3.03.76 1.3 1.14 2.81 1.14 4.53 0 1.72-.39 3.24-1.17 4.56-.76 1.3-1.81 2.3-3.15 3-1.32.7-2.8 1.05-4.44 1.05zm0-4.44c.98 0 1.81-.36 2.49-1.08.7-.72 1.05-1.75 1.05-3.09 0-1.34-.34-2.37-1.02-3.09-.66-.72-1.48-1.08-2.46-1.08-1 0-1.83.36-2.49 1.08-.66.7-.99 1.73-.99 3.09 0 1.34.32 2.37.96 3.09.66.72 1.48 1.08 2.46 1.08z" fill="#EF2B38"/><defs><clipPath id="a"><path fill="#fff" d="M0 0h50v64H0z"/></clipPath></defs></svg>