<svg width="25" height="24" viewBox="0 0 25 24" fill="none" xmlns="http://www.w3.org/2000/svg">
<path fill-rule="evenodd" clip-rule="evenodd" d="M15.2964 14.36H15.3564C17.3212 13.4928 18.8881 11.9187 19.7464 9.95V14.31C19.7544 17.1046 18.0995 19.6362 15.5364 20.75H15.4664C14.619 21.1089 13.7067 21.2893 12.7864 21.28C11.8969 21.2824 11.0161 21.1056 10.1964 20.76L9.93645 20.65C7.37897 19.58 5.72025 17.0722 5.73645 14.3V14.12C5.75563 12.7003 6.33419 11.3456 7.34645 10.35L7.52645 10.18C9.11769 8.62154 10.43 6.80186 11.4064 4.8L12.7764 2C12.7764 2 14.1964 4 15.5164 6C17.1263 8.38859 16.5909 11.6186 14.2964 13.36H14.2464H14.1764C13.9383 13.6598 13.9641 14.0908 14.2364 14.36C14.3504 14.4562 14.4979 14.503 14.6464 14.49C14.8685 14.4807 15.0878 14.4368 15.2964 14.36ZM14.8565 19.36H14.9265V19.35C16.9259 18.4737 18.2227 16.503 18.2365 14.32C17.562 14.9135 16.7909 15.3871 15.9565 15.72L15.8265 15.77C15.45 15.9166 15.0504 15.9945 14.6465 16C14.0991 16.0193 13.5677 15.8133 13.1765 15.43C12.3595 14.6226 12.2819 13.3293 12.9965 12.43C13.0837 12.321 13.1845 12.2235 13.2965 12.14H13.3665C15.0527 10.8822 15.4494 8.51958 14.2665 6.78C13.8365 6.14 13.4065 5.5 13.0065 4.93L12.7565 5.45C11.6981 7.58318 10.2846 9.52081 8.57645 11.18L8.39645 11.35C7.67014 12.0668 7.25369 13.0397 7.23645 14.06V14.25C7.20936 16.4292 8.50679 18.407 10.5165 19.25L10.7765 19.36C12.0801 19.9135 13.5528 19.9135 14.8565 19.36Z" fill="#FF0000"/>
</svg>
