<svg width="201" height="201" viewBox="0 0 201 201" fill="none" xmlns="http://www.w3.org/2000/svg">
<circle cx="100.5" cy="100.5" r="100.5" fill="#CDC4E1"/>
<path d="M121.711 87.1721C121.711 87.1721 106.267 96.6213 95.3332 96.6213C84.3967 96.6213 68.8765 87.1721 68.8765 87.1721C65.8969 87.1721 63.3994 89.9234 63.3994 93.2914V155.958C63.3994 156.39 63.4933 156.801 63.5669 157.194C64.9273 168.534 78.6404 177.44 95.3129 177.44C111.988 177.44 125.663 168.534 127.021 157.212C127.097 156.819 127.135 156.39 127.135 155.979V93.2711C127.115 89.9234 124.693 87.1721 121.711 87.1721Z" fill="#593B9B"/>
<path d="M121.711 87.1721C121.711 87.1721 106.267 96.6213 95.3332 96.6213C84.3967 96.6213 68.8765 87.1721 68.8765 87.1721C65.8969 87.1721 63.3994 89.9234 63.3994 93.2914V155.958C63.3994 156.39 63.4933 156.801 63.5669 157.194C64.9273 168.534 78.6404 177.44 95.3129 177.44C111.988 177.44 125.663 168.534 127.021 157.212C127.097 156.819 127.135 156.39 127.135 155.979V93.2711C127.115 89.9234 124.693 87.1721 121.711 87.1721Z" fill="#9B89C3"/>
<path d="M92.1098 178.209C92.1098 175.719 90.191 173.623 87.7113 173.623C85.2342 173.623 83.3154 175.57 83.3154 178.06V180.174H92.0895L92.1098 178.209Z" fill="#7B2C2D"/>
<path d="M107.219 178.209C107.219 175.719 105.486 173.623 103.008 173.623C100.531 173.623 98.7979 175.57 98.7979 178.06V180.174H107.219V178.209Z" fill="#7B2C2D"/>
<path d="M122.903 118.124C122.903 118.723 122.86 119.324 122.771 119.921C122.683 120.52 122.551 121.113 122.373 121.705C122.198 122.294 121.977 122.875 121.716 123.451C121.452 124.027 121.147 124.593 120.802 125.146C120.454 125.702 120.068 126.245 119.642 126.776C119.216 127.306 118.751 127.821 118.249 128.321C117.746 128.821 117.208 129.304 116.632 129.768C116.058 130.233 115.452 130.677 114.812 131.103C114.172 131.527 113.502 131.931 112.802 132.314C112.104 132.695 111.378 133.052 110.624 133.385C109.873 133.72 109.096 134.03 108.299 134.311C107.502 134.596 106.685 134.852 105.848 135.083C105.013 135.311 104.162 135.514 103.297 135.689C102.429 135.865 101.553 136.009 100.665 136.126C99.7792 136.245 98.8833 136.332 97.9848 136.39C97.0838 136.451 96.1802 136.479 95.2767 136.479C94.3706 136.479 93.4671 136.451 92.5686 136.39C91.6676 136.332 90.7742 136.245 89.8859 136.126C88.9976 136.009 88.1219 135.865 87.2564 135.689C86.3884 135.514 85.5382 135.311 84.7032 135.083C83.8656 134.852 83.0509 134.596 82.2514 134.311C81.4545 134.03 80.6778 133.72 79.9266 133.385C79.1728 133.052 78.4469 132.695 77.7489 132.314C77.0484 131.931 76.3784 131.527 75.7388 131.103C75.0992 130.677 74.4926 130.233 73.919 129.768C73.3454 129.304 72.8073 128.821 72.3022 128.321C71.7997 127.821 71.3352 127.306 70.9089 126.776C70.4825 126.245 70.0967 125.702 69.7515 125.146C69.4038 124.593 69.0992 124.027 68.8378 123.451C68.5738 122.875 68.3556 122.294 68.1779 121.705C68.0028 121.113 67.8683 120.52 67.7794 119.921C67.6906 119.324 67.6475 118.723 67.6475 118.124C67.6475 117.522 67.6906 116.921 67.7794 116.324C67.8683 115.725 68.0028 115.131 68.1779 114.542C68.3556 113.951 68.5738 113.37 68.8378 112.794C69.0992 112.218 69.4038 111.654 69.7515 111.098C70.0967 110.542 70.4825 109.999 70.9089 109.469C71.3352 108.938 71.7997 108.423 72.3022 107.923C72.8073 107.423 73.3454 106.941 73.919 106.476C74.4926 106.012 75.0992 105.568 75.7388 105.141C76.3784 104.718 77.0484 104.314 77.7489 103.933C78.4469 103.55 79.1728 103.192 79.9266 102.86C80.6778 102.525 81.4545 102.218 82.2514 101.933C83.0509 101.649 83.8656 101.393 84.7032 101.162C85.5382 100.933 86.3884 100.73 87.2564 100.555C88.1219 100.383 88.9976 100.235 89.8859 100.119C90.7742 100.002 91.6676 99.9131 92.5686 99.8547C93.4671 99.7938 94.3706 99.7659 95.2767 99.7659C96.1802 99.7659 97.0838 99.7938 97.9848 99.8547C98.8833 99.9131 99.7792 100.002 100.665 100.119C101.553 100.235 102.429 100.383 103.297 100.555C104.162 100.73 105.013 100.933 105.848 101.162C106.685 101.393 107.502 101.649 108.299 101.933C109.096 102.218 109.873 102.525 110.624 102.86C111.378 103.192 112.104 103.55 112.802 103.933C113.502 104.314 114.172 104.718 114.812 105.141C115.452 105.568 116.058 106.012 116.632 106.476C117.208 106.941 117.746 107.423 118.249 107.923C118.751 108.423 119.216 108.938 119.642 109.469C120.068 109.999 120.454 110.542 120.802 111.098C121.147 111.654 121.452 112.218 121.716 112.794C121.977 113.37 122.198 113.951 122.373 114.542C122.551 115.131 122.683 115.725 122.771 116.324C122.86 116.921 122.903 117.522 122.903 118.124Z" fill="#CDC4E1"/>
<path d="M127.097 93.271C127.097 89.903 124.655 87.1543 121.675 87.1543C121.675 87.1543 106.211 96.6035 95.2771 96.6035C84.3407 96.6035 68.8764 87.1721 68.8764 87.1721C65.8967 87.1721 63.4551 89.9233 63.4551 93.2913C63.4551 93.2913 87.6554 127.852 95.2771 127.852C102.896 127.834 127.097 93.271 127.097 93.271Z" fill="#593B9B"/>
<path d="M88.9042 154.968C84.9169 154.968 81.6758 151.374 81.6758 146.94C81.6758 146.415 82.0869 146.004 82.6072 146.004C83.1301 146.004 83.5387 146.415 83.5387 146.94C83.5387 150.326 85.9422 153.095 88.9042 153.095C91.8661 153.095 94.2696 150.326 94.2696 146.94C94.2696 146.415 94.6808 146.004 95.2011 146.004C95.7239 146.004 96.1325 146.415 96.1325 146.94C96.1325 151.357 92.8914 154.968 88.9042 154.968Z" fill="#593B9B"/>
<path d="M114.037 147.989C110.05 147.989 106.809 144.395 106.809 139.961C106.809 139.436 107.22 139.024 107.74 139.024C108.263 139.024 108.672 139.436 108.672 139.961C108.672 143.347 111.075 146.116 114.037 146.116C116.999 146.116 119.402 143.347 119.402 139.961C119.402 139.436 119.814 139.024 120.334 139.024C120.857 139.024 121.265 139.436 121.265 139.961C121.265 144.395 118.024 147.989 114.037 147.989Z" fill="#593B9B"/>
<path d="M99.0389 168.347C95.0542 168.347 91.8105 164.755 91.8105 160.319C91.8105 159.796 92.2217 159.385 92.742 159.385C93.2648 159.385 93.6735 159.796 93.6735 160.319C93.6735 163.707 96.077 166.476 99.0389 166.476C102.001 166.476 104.404 163.707 104.404 160.319C104.404 159.796 104.816 159.385 105.336 159.385C105.859 159.385 106.267 159.796 106.267 160.319C106.267 164.735 103.026 168.347 99.0389 168.347Z" fill="#593B9B"/>
<path d="M111.598 168.347C107.61 168.347 104.369 164.755 104.369 160.319C104.369 159.796 104.778 159.385 105.301 159.385C105.821 159.385 106.232 159.796 106.232 160.319C106.232 163.707 108.636 166.476 111.598 166.476C114.559 166.476 116.963 163.707 116.963 160.319C116.963 159.796 117.372 159.385 117.894 159.385C118.415 159.385 118.826 159.796 118.826 160.319C118.844 164.735 115.585 168.347 111.598 168.347Z" fill="#593B9B"/>
<path d="M75.9579 154.968C71.9706 154.968 68.7295 151.374 68.7295 146.94C68.7295 146.415 69.1381 146.004 69.661 146.004C70.1813 146.004 70.5924 146.415 70.5924 146.94C70.5924 150.326 72.996 153.095 75.9579 153.095C78.9198 153.095 81.3233 150.326 81.3233 146.94C81.3233 146.415 81.7319 146.004 82.2548 146.004C82.7751 146.004 83.1862 146.415 83.1862 146.94C83.1862 151.357 79.9451 154.968 75.9579 154.968Z" fill="#593B9B"/>
<path d="M85.1777 120.499C89.3148 124.971 93.0406 130.773 95.2944 130.753C97.5101 130.735 101.406 124.616 105.411 120.499H85.1777Z" fill="#7B2C2D"/>
<path d="M94.0518 50.4795C94.0898 43.0887 94.3284 37.9999 100.11 32.7715C106.344 27.1345 112.559 25.9898 120.75 25.9771C131.234 25.9619 141.463 27.2664 151.952 27.2664C156.404 27.2664 161.254 27.8274 165.643 26.9923C170.645 26.0431 174.719 22.67 179 21C173.729 33.538 157.536 32.9669 157.536 32.9669C157.536 32.9669 159.508 35.3171 168.686 35.9973C152.003 42.8881 138.818 41.0404 138.818 41.0404C138.818 41.0404 139.721 46.8627 150.31 48.2333C150.178 48.2028 143.724 50.4033 133.64 50.1394C130.932 50.0683 127.838 49.4845 125.199 48.7764C121.1 47.68 117.483 45.5379 113.691 43.6699C110.123 41.9135 106.209 40.2587 102.224 41.6572C97.1431 43.4389 96.5847 47.7384 94.4807 51.7713L94.0518 50.4795Z" fill="#EF2B38"/>
<path d="M125.673 123.819C126.018 121.04 126.206 118.174 126.206 115.243C126.206 89.6821 112.422 68.9716 95.4146 68.9716C78.4097 68.9716 64.6357 89.6821 64.6357 115.243C64.6357 118.164 64.8108 121.032 65.1636 123.809C59.5596 116.621 56.1865 107.403 56.1865 97.3496C56.1865 74.3955 73.7574 55.7839 95.4146 55.7839C117.082 55.7839 134.65 74.3955 134.65 97.3496C134.65 107.413 131.285 116.631 125.673 123.819Z" fill="#7A7C81"/>
<path d="M100.146 66.3831C100.146 69.4897 98.0314 72.01 95.4198 72.01C92.8056 72.01 90.6914 69.4897 90.6914 66.3831V54.1269C90.6914 51.0177 92.8056 48.5 95.4198 48.5C98.0314 48.5 100.146 51.0177 100.146 54.1269V66.3831Z" fill="#7A7C81"/>
<path d="M131.584 74.5378C124.294 72.8602 103.449 68.2358 95.4191 68.2358C87.3861 68.2358 66.5411 72.8602 59.2518 74.5378C57.8356 74.8627 56.6224 76.4109 56.5361 77.9896L55.3864 99.3777C55.3026 100.959 56.3864 102.482 57.8077 102.784C65.8152 104.477 90.0866 109.489 95.4191 109.225C100.749 109.489 125.02 104.477 133.03 102.784C134.449 102.482 135.535 100.959 135.449 99.3777L134.302 77.9896C134.213 76.4109 133 74.8627 131.584 74.5378Z" fill="#BCBCBE"/>
<path d="M93.151 94.4689C93.151 96.8877 91.5038 98.8445 89.4759 98.8445C87.448 98.8445 85.8008 96.8877 85.8008 94.4689V82.7787C85.8008 80.365 87.448 78.4031 89.4759 78.4031C91.5038 78.4031 93.151 80.365 93.151 82.7787V94.4689Z" fill="#63686D"/>
<path d="M89.4752 97.4637C88.0869 97.4637 86.96 96.1186 86.96 94.4688V82.7786C86.96 81.1263 88.0869 79.7837 89.4752 79.7837C90.8609 79.7837 91.9904 81.1263 91.9904 82.7786V94.4688C91.9904 96.1186 90.8609 97.4637 89.4752 97.4637Z" fill="#3C3C3E"/>
<path d="M81.6627 94.4689C81.6627 96.8877 80.018 98.8445 77.9876 98.8445C75.9572 98.8445 74.3125 96.8877 74.3125 94.4689V82.7787C74.3125 80.365 75.9572 78.4031 77.9876 78.4031C80.018 78.4031 81.6627 80.365 81.6627 82.7787V94.4689Z" fill="#63686D"/>
<path d="M77.9879 97.4637C76.5996 97.4637 75.4727 96.1186 75.4727 94.4688V82.7786C75.4727 81.1263 76.5996 79.7837 77.9879 79.7837C79.3737 79.7837 80.5006 81.1263 80.5006 82.7786V94.4688C80.5006 96.1186 79.3737 97.4637 77.9879 97.4637Z" fill="#3C3C3E"/>
<path d="M70.1758 94.4689C70.1758 96.8877 68.5311 98.8445 66.5007 98.8445C64.4702 98.8445 62.8281 96.8877 62.8281 94.4689V82.7787C62.8281 80.365 64.4702 78.4031 66.5007 78.4031C68.5311 78.4031 70.1758 80.365 70.1758 82.7787V94.4689Z" fill="#63686D"/>
<path d="M66.5015 97.4637C65.1132 97.4637 63.9863 96.1186 63.9863 94.4688V82.7786C63.9863 81.1263 65.1132 79.7837 66.5015 79.7837C67.8873 79.7837 69.0168 81.1263 69.0168 82.7786V94.4688C69.0168 96.1186 67.8873 97.4637 66.5015 97.4637Z" fill="#3C3C3E"/>
<path d="M104.637 94.4689C104.637 96.8877 102.993 98.8445 100.962 98.8445C98.9343 98.8445 97.2871 96.8877 97.2871 94.4689V82.7787C97.2871 80.365 98.9343 78.4031 100.962 78.4031C102.993 78.4031 104.637 80.365 104.637 82.7787V94.4689Z" fill="#63686D"/>
<path d="M100.962 97.4637C99.5761 97.4637 98.4492 96.1186 98.4492 94.4688V82.7786C98.4492 81.1263 99.5761 79.7837 100.962 79.7837C102.348 79.7837 103.477 81.1263 103.477 82.7786V94.4688C103.477 96.1186 102.348 97.4637 100.962 97.4637Z" fill="#3C3C3E"/>
<path d="M116.125 94.4689C116.125 96.8877 114.477 98.8445 112.45 98.8445C110.422 98.8445 108.774 96.8877 108.774 94.4689V82.7787C108.774 80.365 110.422 78.4031 112.45 78.4031C114.477 78.4031 116.125 80.365 116.125 82.7787V94.4689Z" fill="#63686D"/>
<path d="M112.45 97.4637C111.064 97.4637 109.935 96.1186 109.935 94.4688V82.7786C109.935 81.1263 111.064 79.7837 112.45 79.7837C113.836 79.7837 114.965 81.1263 114.965 82.7786V94.4688C114.965 96.1186 113.836 97.4637 112.45 97.4637Z" fill="#3C3C3E"/>
<path d="M127.609 94.4689C127.609 96.8877 125.967 98.8445 123.937 98.8445C121.906 98.8445 120.262 96.8877 120.262 94.4689V82.7787C120.262 80.365 121.906 78.4031 123.937 78.4031C125.967 78.4031 127.609 80.365 127.609 82.7787V94.4689Z" fill="#63686D"/>
<path d="M123.937 97.4637C122.549 97.4637 121.422 96.1186 121.422 94.4688V82.7786C121.422 81.1263 122.549 79.7837 123.937 79.7837C125.323 79.7837 126.452 81.1263 126.452 82.7786V94.4688C126.452 96.1186 125.323 97.4637 123.937 97.4637Z" fill="#3C3C3E"/>
<path d="M151.269 30.5863C150.629 30.632 149.708 30.7157 148.576 30.7208C146.32 30.7893 143.244 30.6776 139.975 30.3781C136.703 30.0913 133.231 29.67 130.132 29.3883C129.393 29.3198 128.675 29.2614 127.987 29.2106C126.655 29.0914 125.185 29.0127 123.624 29.0051C123.267 29 122.927 28.9974 122.63 29.0025C122.599 29.0025 122.566 29.0051 122.536 29.0051C122.317 29.0076 122.089 29.0127 121.84 29.0228C121.071 29.0482 120.32 29.0939 119.594 29.1624C119.584 29.1624 119.576 29.1624 119.566 29.165C119.556 29.165 119.543 29.1675 119.533 29.1675C118.929 29.2259 118.338 29.2919 117.774 29.3756C117.685 29.3858 117.602 29.3934 117.51 29.4061C116.789 29.4873 116.036 29.6548 115.254 29.7868C115.059 29.8223 114.863 29.8578 114.665 29.8959C114.47 29.9441 114.274 29.9924 114.076 30.0431C113.68 30.1421 113.282 30.2436 112.878 30.3452C112.061 30.5482 111.274 30.769 110.452 31.0228C108.823 31.5253 107.188 32.1396 105.678 32.8984C104.165 33.6522 102.785 34.5583 101.653 35.5482C100.516 36.5329 99.6399 37.5938 98.9876 38.5354C98.3531 39.4948 97.9292 40.3298 97.6729 40.9237C97.4267 41.5202 97.2871 41.8527 97.2871 41.8527C97.2871 41.8527 97.4572 41.5354 97.7617 40.9694C98.0739 40.4085 98.5714 39.6243 99.2769 38.7537C100 37.8984 100.937 36.9618 102.104 36.1243C103.272 35.2842 104.655 34.5482 106.153 33.9593C107.65 33.3654 109.254 32.9137 110.858 32.5583C111.652 32.3807 112.482 32.2182 113.264 32.0863C113.658 32.0177 114.046 31.9517 114.429 31.8832C114.622 31.8502 114.81 31.8172 115 31.7842C115.191 31.7639 115.381 31.7436 115.569 31.7233C116.198 31.6624 116.797 31.5837 117.386 31.533C118.97 31.4289 120.751 31.3451 122.663 31.3274C122.67 31.3274 122.68 31.3274 122.685 31.3248C122.731 31.3274 122.784 31.3248 122.83 31.3248C124.505 31.3071 126.107 31.3096 127.564 31.3071C128.343 31.3147 129.162 31.3274 130.023 31.3451C133.102 31.4086 136.612 31.5406 139.924 31.538C143.236 31.5507 146.345 31.368 148.601 31.0812C149.733 30.9695 150.647 30.7944 151.282 30.6853C151.916 30.5761 152.271 30.5152 152.271 30.5152C152.271 30.5152 151.911 30.5406 151.269 30.5863Z" fill="#C41F26"/>
<path d="M80.2497 62.4923C80.2294 62.4441 80.3259 62.3451 80.5188 62.208C80.7142 62.071 81.0162 61.9136 81.3919 61.7258C81.4858 61.6801 81.5847 61.6344 81.6888 61.5837C81.7929 61.5329 81.8995 61.4821 82.0137 61.439C82.2421 61.3451 82.4883 61.2486 82.7472 61.1497C82.8766 61.1014 83.0111 61.0507 83.1456 60.9999C83.2827 60.9517 83.4248 60.9111 83.567 60.8629C83.8563 60.774 84.1558 60.6827 84.4629 60.5938C84.77 60.5075 85.1786 60.4187 85.6532 60.3096C85.7725 60.2842 85.8969 60.2537 86.0238 60.2309C86.1507 60.2055 86.2827 60.1827 86.4172 60.1573C86.6888 60.1116 86.9705 60.0608 87.2649 60.0075C88.44 59.8324 89.775 59.67 91.0365 59.6091C91.1938 59.5989 91.3512 59.5888 91.5035 59.5811C91.6583 59.571 91.8131 59.5685 91.9628 59.5634C92.2649 59.5532 92.5567 59.5456 92.8359 59.538C93.3968 59.5278 93.9095 59.5355 94.341 59.5355C95.2039 59.5583 95.7547 59.5761 95.7547 59.5761C95.7547 59.5761 95.2065 59.6065 94.3435 59.6547C93.9146 59.6928 93.407 59.7283 92.8512 59.7816C92.5745 59.8121 92.2852 59.8451 91.9857 59.8781C91.8385 59.8959 91.6862 59.9085 91.5339 59.9289C91.3816 59.9517 91.2293 59.972 91.0745 59.9948C89.8334 60.1497 88.5289 60.4085 87.3842 60.6497C87.0999 60.7182 86.8258 60.7842 86.5644 60.8451C86.4324 60.8755 86.3055 60.906 86.1812 60.9365C86.0593 60.9644 85.94 60.9999 85.8258 61.0304C85.3639 61.1547 84.968 61.2613 84.6659 61.3425C84.3665 61.4288 84.072 61.5126 83.7878 61.5913C83.6456 61.6293 83.5035 61.6649 83.369 61.7055C83.2345 61.7486 83.1 61.7867 82.9705 61.8273C82.7142 61.906 82.4655 61.9771 82.232 62.043C82.1152 62.0735 82.0035 62.109 81.8969 62.1446C81.7903 62.175 81.6863 62.208 81.5873 62.2385C81.1939 62.3578 80.8665 62.4339 80.6381 62.4847C80.4096 62.538 80.2726 62.543 80.2497 62.4923Z" fill="#63686D"/>
<path d="M89.11 60.0327C89.1024 59.9819 88.9679 59.9438 88.7318 59.9337C88.4958 59.9286 88.1557 59.9413 87.7395 59.9768C87.6329 59.987 87.5237 59.9971 87.4095 60.0073C87.2978 60.02 87.1811 60.0378 87.0593 60.0555C86.8156 60.0936 86.5542 60.1342 86.2826 60.1799C86.0085 60.223 85.7243 60.2865 85.4324 60.355C85.138 60.4235 84.8334 60.4946 84.5238 60.5758C84.2167 60.6646 83.8182 60.789 83.3537 60.9362C83.237 60.9718 83.1177 61.0149 82.9959 61.0606C82.874 61.1063 82.7471 61.152 82.6177 61.2002C82.3613 61.2966 82.0898 61.3931 81.8131 61.5022C81.539 61.6215 81.2573 61.7433 80.9679 61.8677C80.8258 61.9311 80.6786 61.992 80.5339 62.058C80.3893 62.1291 80.2446 62.2002 80.0999 62.2712C79.8131 62.4134 79.5213 62.5555 79.2345 62.7027C78.9527 62.8626 78.671 63.02 78.3969 63.1748C78.2573 63.2535 78.1203 63.3271 77.9883 63.4083C77.8563 63.492 77.7269 63.5733 77.6 63.6545C77.3436 63.8194 77.0974 63.9768 76.8588 64.1265C76.3995 64.454 75.9858 64.7534 75.6355 65.0098C74.9655 65.5555 74.5391 65.9032 74.5391 65.9032C74.5391 65.9032 74.9934 65.5935 75.704 65.1062C76.0746 64.8829 76.5111 64.6189 76.9883 64.3347C77.2345 64.2052 77.4908 64.0682 77.7548 63.9286C77.8868 63.8575 78.0213 63.7864 78.1558 63.7154C78.2928 63.6469 78.435 63.5834 78.5746 63.5174C78.8588 63.3854 79.1456 63.2509 79.4324 63.1164C79.7243 62.992 80.0213 62.8753 80.3157 62.756C80.4603 62.6951 80.6075 62.6367 80.7522 62.5758C80.8969 62.5225 81.0466 62.4717 81.1888 62.421C81.4806 62.3169 81.7649 62.2154 82.039 62.1164C82.3157 62.025 82.5872 61.9464 82.8436 61.8651C82.9705 61.8245 83.0974 61.7865 83.2192 61.7484C83.3385 61.7103 83.4552 61.6723 83.572 61.6443C84.0339 61.52 84.4273 61.4108 84.7268 61.322C85.94 61.0073 87.0364 60.723 87.8334 60.5174C88.2319 60.4134 88.5542 60.3169 88.7775 60.2332C88.9983 60.152 89.1176 60.0885 89.11 60.0327Z" fill="#63686D"/>
<path d="M128.401 75.6468C128.365 75.7483 127.891 75.6798 127.132 75.5757C126.373 75.4666 125.317 75.3245 124.155 75.124C123.86 75.0732 123.48 75.0021 123.036 74.9184C122.815 74.8727 122.576 74.827 122.327 74.7762C122.076 74.728 121.815 74.6773 121.546 74.6113C121.008 74.4869 120.432 74.3524 119.85 74.2179C119.558 74.1493 119.264 74.0859 118.975 74.0072C118.683 73.9336 118.394 73.8575 118.109 73.7839C117.538 73.6367 116.987 73.492 116.48 73.36C115.977 73.2179 115.515 73.0884 115.127 72.9793C114.35 72.7585 113.855 72.6189 113.855 72.6189C113.855 72.6189 114.361 72.7128 115.155 72.86C115.551 72.9362 116.02 73.025 116.533 73.1214C117.048 73.2103 117.609 73.3067 118.188 73.4057C118.477 73.4565 118.772 73.5072 119.066 73.558C119.36 73.6113 119.66 73.6519 119.952 73.7001C120.541 73.7915 121.122 73.8828 121.665 73.9691C121.937 74.0148 122.201 74.0504 122.452 74.0859C122.703 74.1214 122.942 74.1544 123.165 74.1874C123.609 74.2509 123.99 74.3118 124.282 74.36C125.449 74.5605 126.505 74.7915 127.254 75.0402C128.008 75.2889 128.437 75.5453 128.401 75.6468Z" fill="#63686D"/>
<path d="M119.944 73.9666C119.901 74.1722 121.751 74.7356 124.094 75.1138C124.241 75.1366 124.409 75.1645 124.596 75.195C124.782 75.2254 124.987 75.2559 125.211 75.2914C125.655 75.36 126.162 75.4361 126.698 75.5325C127.231 75.629 127.799 75.7432 128.358 75.9107C128.914 76.0757 129.462 76.294 129.944 76.5884C130.183 76.7381 130.408 76.9031 130.606 77.0884C130.804 77.2737 130.985 77.4691 131.129 77.6772C131.429 78.0909 131.612 78.53 131.736 78.9082C131.799 79.0985 131.837 79.2762 131.878 79.4335C131.908 79.5909 131.934 79.7279 131.952 79.8422C131.982 80.0706 132.002 80.1975 132.002 80.1975C132.002 80.1975 131.995 80.068 131.987 79.8396C131.977 79.7229 131.964 79.5833 131.947 79.4208C131.924 79.2609 131.898 79.0757 131.85 78.8777C131.761 78.4792 131.612 78.0071 131.332 77.5427C131.198 77.3092 131.025 77.0833 130.83 76.865C130.634 76.6493 130.406 76.4513 130.16 76.2686C129.667 75.9056 129.099 75.6265 128.528 75.4082C127.954 75.1899 127.376 75.0275 126.832 74.893C126.292 74.7584 125.784 74.6518 125.34 74.5605C125.117 74.5173 124.911 74.4767 124.723 74.4386C124.535 74.4057 124.368 74.3752 124.223 74.3498C121.891 73.9742 119.987 73.7534 119.944 73.9666Z" fill="#63686D"/>
<path d="M67.9677 102.657C67.9271 102.867 65.8053 102.593 63.2343 102.045C62.9678 101.989 62.6277 101.91 62.2546 101.827C61.8713 101.74 61.4297 101.654 60.95 101.537C60.4703 101.421 59.9526 101.281 59.4297 101.063C59.1683 100.959 58.9069 100.817 58.6556 100.662C58.4069 100.492 58.1709 100.289 57.9754 100.04L57.9881 100.053C57.7165 99.7302 57.5186 99.3571 57.3815 98.9815C57.2445 98.6008 57.181 98.2176 57.1328 97.847C57.0567 97.1059 57.082 96.4206 57.1074 95.8369C57.1379 95.2531 57.1683 94.7709 57.1734 94.4283C57.181 94.2582 57.1785 94.1262 57.181 94.0349C57.181 93.9435 57.181 93.8953 57.181 93.8953C57.181 93.8953 57.1836 93.9435 57.1912 94.0349C57.1988 94.1237 57.2115 94.2582 57.2191 94.4283C57.2394 94.7684 57.2495 95.2582 57.2673 95.8394C57.2876 96.4206 57.3155 97.0983 57.445 97.8013C57.516 98.149 57.6049 98.5044 57.7521 98.8343C57.9018 99.1642 58.0973 99.4688 58.3409 99.7252L58.3536 99.7378C58.5186 99.918 58.7191 100.07 58.9373 100.2C59.1658 100.319 59.3967 100.428 59.6429 100.507C60.1252 100.674 60.6252 100.778 61.0922 100.865C61.5617 100.951 62.0033 101.017 62.3993 101.088C62.8028 101.164 63.1327 101.233 63.4018 101.289C65.9652 101.834 68.0083 102.448 67.9677 102.657Z" fill="#63686D"/>
<path d="M58.7035 100.367C58.6883 100.388 58.701 100.428 58.7416 100.487C58.7822 100.542 58.8558 100.608 58.9548 100.692C59.1553 100.844 59.4751 101.032 59.8888 101.197C60.3025 101.362 60.8101 101.507 61.3684 101.636C61.9243 101.758 62.5309 101.89 63.1679 102.032C63.8101 102.169 64.8557 102.367 66.0613 102.586C67.2694 102.804 68.6324 103.06 69.9268 103.24C72.508 103.621 74.7643 103.954 74.7643 103.954C74.7643 103.954 72.5435 103.443 70.0004 102.86C68.7263 102.586 67.3862 102.235 66.1958 101.946C65.008 101.657 63.975 101.413 63.3354 101.273C63.0156 101.207 62.7009 101.141 62.3887 101.083C62.0791 101.027 61.7847 100.981 61.5055 100.936C60.9497 100.847 60.4573 100.763 60.0487 100.672C59.2339 100.499 58.7619 100.284 58.7035 100.367Z" fill="#63686D"/>
<path d="M94.0518 50.4795C94.0898 43.0887 94.3284 37.9999 100.11 32.7715C106.344 27.1345 112.559 25.9898 120.75 25.9771C131.234 25.9619 141.463 27.2664 151.952 27.2664C156.404 27.2664 161.254 27.8274 165.643 26.9923C170.645 26.0431 174.719 22.67 179 21C173.729 33.538 157.536 32.9669 157.536 32.9669C157.536 32.9669 159.508 35.3171 168.686 35.9973C152.003 42.8881 138.818 41.0404 138.818 41.0404C138.818 41.0404 139.721 46.8627 150.31 48.2333C150.178 48.2028 143.724 50.4033 133.64 50.1394C130.932 50.0683 127.838 49.4845 125.199 48.7764C121.1 47.68 117.483 45.5379 113.691 43.6699C110.123 41.9135 106.209 40.2587 102.224 41.6572C97.1431 43.4389 96.5847 47.7384 94.4807 51.7713L94.0518 50.4795Z" fill="#EF2B38"/>
<path d="M125.673 123.819C126.018 121.04 126.206 118.174 126.206 115.243C126.206 89.6821 112.422 68.9716 95.4146 68.9716C78.4097 68.9716 64.6357 89.6821 64.6357 115.243C64.6357 118.164 64.8108 121.032 65.1636 123.809C59.5596 116.621 56.1865 107.403 56.1865 97.3496C56.1865 74.3955 73.7574 55.7839 95.4146 55.7839C117.082 55.7839 134.65 74.3955 134.65 97.3496C134.65 107.413 131.285 116.631 125.673 123.819Z" fill="#7A7C81"/>
<path d="M100.146 66.3831C100.146 69.4897 98.0314 72.01 95.4198 72.01C92.8056 72.01 90.6914 69.4897 90.6914 66.3831V54.1269C90.6914 51.0177 92.8056 48.5 95.4198 48.5C98.0314 48.5 100.146 51.0177 100.146 54.1269V66.3831Z" fill="#7A7C81"/>
<path d="M131.584 74.5378C124.294 72.8602 103.449 68.2358 95.4191 68.2358C87.3861 68.2358 66.5411 72.8602 59.2518 74.5378C57.8356 74.8627 56.6224 76.4109 56.5361 77.9896L55.3864 99.3777C55.3026 100.959 56.3864 102.482 57.8077 102.784C65.8152 104.477 90.0866 109.489 95.4191 109.225C100.749 109.489 125.02 104.477 133.03 102.784C134.449 102.482 135.535 100.959 135.449 99.3777L134.302 77.9896C134.213 76.4109 133 74.8627 131.584 74.5378Z" fill="#BCBCBE"/>
<path d="M93.151 94.4689C93.151 96.8877 91.5038 98.8445 89.4759 98.8445C87.448 98.8445 85.8008 96.8877 85.8008 94.4689V82.7787C85.8008 80.365 87.448 78.4031 89.4759 78.4031C91.5038 78.4031 93.151 80.365 93.151 82.7787V94.4689Z" fill="#63686D"/>
<path d="M89.4752 97.4637C88.0869 97.4637 86.96 96.1186 86.96 94.4688V82.7786C86.96 81.1263 88.0869 79.7837 89.4752 79.7837C90.8609 79.7837 91.9904 81.1263 91.9904 82.7786V94.4688C91.9904 96.1186 90.8609 97.4637 89.4752 97.4637Z" fill="#3C3C3E"/>
<path d="M81.6627 94.4689C81.6627 96.8877 80.018 98.8445 77.9876 98.8445C75.9572 98.8445 74.3125 96.8877 74.3125 94.4689V82.7787C74.3125 80.365 75.9572 78.4031 77.9876 78.4031C80.018 78.4031 81.6627 80.365 81.6627 82.7787V94.4689Z" fill="#63686D"/>
<path d="M77.9879 97.4637C76.5996 97.4637 75.4727 96.1186 75.4727 94.4688V82.7786C75.4727 81.1263 76.5996 79.7837 77.9879 79.7837C79.3737 79.7837 80.5006 81.1263 80.5006 82.7786V94.4688C80.5006 96.1186 79.3737 97.4637 77.9879 97.4637Z" fill="#3C3C3E"/>
<path d="M70.1758 94.4689C70.1758 96.8877 68.5311 98.8445 66.5007 98.8445C64.4702 98.8445 62.8281 96.8877 62.8281 94.4689V82.7787C62.8281 80.365 64.4702 78.4031 66.5007 78.4031C68.5311 78.4031 70.1758 80.365 70.1758 82.7787V94.4689Z" fill="#63686D"/>
<path d="M66.5015 97.4637C65.1132 97.4637 63.9863 96.1186 63.9863 94.4688V82.7786C63.9863 81.1263 65.1132 79.7837 66.5015 79.7837C67.8873 79.7837 69.0168 81.1263 69.0168 82.7786V94.4688C69.0168 96.1186 67.8873 97.4637 66.5015 97.4637Z" fill="#3C3C3E"/>
<path d="M104.637 94.4689C104.637 96.8877 102.993 98.8445 100.962 98.8445C98.9343 98.8445 97.2871 96.8877 97.2871 94.4689V82.7787C97.2871 80.365 98.9343 78.4031 100.962 78.4031C102.993 78.4031 104.637 80.365 104.637 82.7787V94.4689Z" fill="#63686D"/>
<path d="M100.962 97.4637C99.5761 97.4637 98.4492 96.1186 98.4492 94.4688V82.7786C98.4492 81.1263 99.5761 79.7837 100.962 79.7837C102.348 79.7837 103.477 81.1263 103.477 82.7786V94.4688C103.477 96.1186 102.348 97.4637 100.962 97.4637Z" fill="#3C3C3E"/>
<path d="M116.125 94.4689C116.125 96.8877 114.477 98.8445 112.45 98.8445C110.422 98.8445 108.774 96.8877 108.774 94.4689V82.7787C108.774 80.365 110.422 78.4031 112.45 78.4031C114.477 78.4031 116.125 80.365 116.125 82.7787V94.4689Z" fill="#63686D"/>
<path d="M112.45 97.4637C111.064 97.4637 109.935 96.1186 109.935 94.4688V82.7786C109.935 81.1263 111.064 79.7837 112.45 79.7837C113.836 79.7837 114.965 81.1263 114.965 82.7786V94.4688C114.965 96.1186 113.836 97.4637 112.45 97.4637Z" fill="#3C3C3E"/>
<path d="M127.609 94.4689C127.609 96.8877 125.967 98.8445 123.937 98.8445C121.906 98.8445 120.262 96.8877 120.262 94.4689V82.7787C120.262 80.365 121.906 78.4031 123.937 78.4031C125.967 78.4031 127.609 80.365 127.609 82.7787V94.4689Z" fill="#63686D"/>
<path d="M123.937 97.4637C122.549 97.4637 121.422 96.1186 121.422 94.4688V82.7786C121.422 81.1263 122.549 79.7837 123.937 79.7837C125.323 79.7837 126.452 81.1263 126.452 82.7786V94.4688C126.452 96.1186 125.323 97.4637 123.937 97.4637Z" fill="#3C3C3E"/>
<path d="M151.269 30.5863C150.629 30.632 149.708 30.7157 148.576 30.7208C146.32 30.7893 143.244 30.6776 139.975 30.3781C136.703 30.0913 133.231 29.67 130.132 29.3883C129.393 29.3198 128.675 29.2614 127.987 29.2106C126.655 29.0914 125.185 29.0127 123.624 29.0051C123.267 29 122.927 28.9974 122.63 29.0025C122.599 29.0025 122.566 29.0051 122.536 29.0051C122.317 29.0076 122.089 29.0127 121.84 29.0228C121.071 29.0482 120.32 29.0939 119.594 29.1624C119.584 29.1624 119.576 29.1624 119.566 29.165C119.556 29.165 119.543 29.1675 119.533 29.1675C118.929 29.2259 118.338 29.2919 117.774 29.3756C117.685 29.3858 117.602 29.3934 117.51 29.4061C116.789 29.4873 116.036 29.6548 115.254 29.7868C115.059 29.8223 114.863 29.8578 114.665 29.8959C114.47 29.9441 114.274 29.9924 114.076 30.0431C113.68 30.1421 113.282 30.2436 112.878 30.3452C112.061 30.5482 111.274 30.769 110.452 31.0228C108.823 31.5253 107.188 32.1396 105.678 32.8984C104.165 33.6522 102.785 34.5583 101.653 35.5482C100.516 36.5329 99.6399 37.5938 98.9876 38.5354C98.3531 39.4948 97.9292 40.3298 97.6729 40.9237C97.4267 41.5202 97.2871 41.8527 97.2871 41.8527C97.2871 41.8527 97.4572 41.5354 97.7617 40.9694C98.0739 40.4085 98.5714 39.6243 99.2769 38.7537C100 37.8984 100.937 36.9618 102.104 36.1243C103.272 35.2842 104.655 34.5482 106.153 33.9593C107.65 33.3654 109.254 32.9137 110.858 32.5583C111.652 32.3807 112.482 32.2182 113.264 32.0863C113.658 32.0177 114.046 31.9517 114.429 31.8832C114.622 31.8502 114.81 31.8172 115 31.7842C115.191 31.7639 115.381 31.7436 115.569 31.7233C116.198 31.6624 116.797 31.5837 117.386 31.533C118.97 31.4289 120.751 31.3451 122.663 31.3274C122.67 31.3274 122.68 31.3274 122.685 31.3248C122.731 31.3274 122.784 31.3248 122.83 31.3248C124.505 31.3071 126.107 31.3096 127.564 31.3071C128.343 31.3147 129.162 31.3274 130.023 31.3451C133.102 31.4086 136.612 31.5406 139.924 31.538C143.236 31.5507 146.345 31.368 148.601 31.0812C149.733 30.9695 150.647 30.7944 151.282 30.6853C151.916 30.5761 152.271 30.5152 152.271 30.5152C152.271 30.5152 151.911 30.5406 151.269 30.5863Z" fill="#C41F26"/>
<path d="M80.2497 62.4923C80.2294 62.4441 80.3259 62.3451 80.5188 62.208C80.7142 62.071 81.0162 61.9136 81.3919 61.7258C81.4858 61.6801 81.5847 61.6344 81.6888 61.5837C81.7929 61.5329 81.8995 61.4821 82.0137 61.439C82.2421 61.3451 82.4883 61.2486 82.7472 61.1497C82.8766 61.1014 83.0111 61.0507 83.1456 60.9999C83.2827 60.9517 83.4248 60.9111 83.567 60.8629C83.8563 60.774 84.1558 60.6827 84.4629 60.5938C84.77 60.5075 85.1786 60.4187 85.6532 60.3096C85.7725 60.2842 85.8969 60.2537 86.0238 60.2309C86.1507 60.2055 86.2827 60.1827 86.4172 60.1573C86.6888 60.1116 86.9705 60.0608 87.2649 60.0075C88.44 59.8324 89.775 59.67 91.0365 59.6091C91.1938 59.5989 91.3512 59.5888 91.5035 59.5811C91.6583 59.571 91.8131 59.5685 91.9628 59.5634C92.2649 59.5532 92.5567 59.5456 92.8359 59.538C93.3968 59.5278 93.9095 59.5355 94.341 59.5355C95.2039 59.5583 95.7547 59.5761 95.7547 59.5761C95.7547 59.5761 95.2065 59.6065 94.3435 59.6547C93.9146 59.6928 93.407 59.7283 92.8512 59.7816C92.5745 59.8121 92.2852 59.8451 91.9857 59.8781C91.8385 59.8959 91.6862 59.9085 91.5339 59.9289C91.3816 59.9517 91.2293 59.972 91.0745 59.9948C89.8334 60.1497 88.5289 60.4085 87.3842 60.6497C87.0999 60.7182 86.8258 60.7842 86.5644 60.8451C86.4324 60.8755 86.3055 60.906 86.1812 60.9365C86.0593 60.9644 85.94 60.9999 85.8258 61.0304C85.3639 61.1547 84.968 61.2613 84.6659 61.3425C84.3665 61.4288 84.072 61.5126 83.7878 61.5913C83.6456 61.6293 83.5035 61.6649 83.369 61.7055C83.2345 61.7486 83.1 61.7867 82.9705 61.8273C82.7142 61.906 82.4655 61.9771 82.232 62.043C82.1152 62.0735 82.0035 62.109 81.8969 62.1446C81.7903 62.175 81.6863 62.208 81.5873 62.2385C81.1939 62.3578 80.8665 62.4339 80.6381 62.4847C80.4096 62.538 80.2726 62.543 80.2497 62.4923Z" fill="#63686D"/>
<path d="M89.11 60.0327C89.1024 59.9819 88.9679 59.9438 88.7318 59.9337C88.4958 59.9286 88.1557 59.9413 87.7395 59.9768C87.6329 59.987 87.5237 59.9971 87.4095 60.0073C87.2978 60.02 87.1811 60.0378 87.0593 60.0555C86.8156 60.0936 86.5542 60.1342 86.2826 60.1799C86.0085 60.223 85.7243 60.2865 85.4324 60.355C85.138 60.4235 84.8334 60.4946 84.5238 60.5758C84.2167 60.6646 83.8182 60.789 83.3537 60.9362C83.237 60.9718 83.1177 61.0149 82.9959 61.0606C82.874 61.1063 82.7471 61.152 82.6177 61.2002C82.3613 61.2966 82.0898 61.3931 81.8131 61.5022C81.539 61.6215 81.2573 61.7433 80.9679 61.8677C80.8258 61.9311 80.6786 61.992 80.5339 62.058C80.3893 62.1291 80.2446 62.2002 80.0999 62.2712C79.8131 62.4134 79.5213 62.5555 79.2345 62.7027C78.9527 62.8626 78.671 63.02 78.3969 63.1748C78.2573 63.2535 78.1203 63.3271 77.9883 63.4083C77.8563 63.492 77.7269 63.5733 77.6 63.6545C77.3436 63.8194 77.0974 63.9768 76.8588 64.1265C76.3995 64.454 75.9858 64.7534 75.6355 65.0098C74.9655 65.5555 74.5391 65.9032 74.5391 65.9032C74.5391 65.9032 74.9934 65.5935 75.704 65.1062C76.0746 64.8829 76.5111 64.6189 76.9883 64.3347C77.2345 64.2052 77.4908 64.0682 77.7548 63.9286C77.8868 63.8575 78.0213 63.7864 78.1558 63.7154C78.2928 63.6469 78.435 63.5834 78.5746 63.5174C78.8588 63.3854 79.1456 63.2509 79.4324 63.1164C79.7243 62.992 80.0213 62.8753 80.3157 62.756C80.4603 62.6951 80.6075 62.6367 80.7522 62.5758C80.8969 62.5225 81.0466 62.4717 81.1888 62.421C81.4806 62.3169 81.7649 62.2154 82.039 62.1164C82.3157 62.025 82.5872 61.9464 82.8436 61.8651C82.9705 61.8245 83.0974 61.7865 83.2192 61.7484C83.3385 61.7103 83.4552 61.6723 83.572 61.6443C84.0339 61.52 84.4273 61.4108 84.7268 61.322C85.94 61.0073 87.0364 60.723 87.8334 60.5174C88.2319 60.4134 88.5542 60.3169 88.7775 60.2332C88.9983 60.152 89.1176 60.0885 89.11 60.0327Z" fill="#63686D"/>
<path d="M128.401 75.6468C128.365 75.7483 127.891 75.6798 127.132 75.5757C126.373 75.4666 125.317 75.3245 124.155 75.124C123.86 75.0732 123.48 75.0021 123.036 74.9184C122.815 74.8727 122.576 74.827 122.327 74.7762C122.076 74.728 121.815 74.6773 121.546 74.6113C121.008 74.4869 120.432 74.3524 119.85 74.2179C119.558 74.1493 119.264 74.0859 118.975 74.0072C118.683 73.9336 118.394 73.8575 118.109 73.7839C117.538 73.6367 116.987 73.492 116.48 73.36C115.977 73.2179 115.515 73.0884 115.127 72.9793C114.35 72.7585 113.855 72.6189 113.855 72.6189C113.855 72.6189 114.361 72.7128 115.155 72.86C115.551 72.9362 116.02 73.025 116.533 73.1214C117.048 73.2103 117.609 73.3067 118.188 73.4057C118.477 73.4565 118.772 73.5072 119.066 73.558C119.36 73.6113 119.66 73.6519 119.952 73.7001C120.541 73.7915 121.122 73.8828 121.665 73.9691C121.937 74.0148 122.201 74.0504 122.452 74.0859C122.703 74.1214 122.942 74.1544 123.165 74.1874C123.609 74.2509 123.99 74.3118 124.282 74.36C125.449 74.5605 126.505 74.7915 127.254 75.0402C128.008 75.2889 128.437 75.5453 128.401 75.6468Z" fill="#63686D"/>
<path d="M119.944 73.9666C119.901 74.1722 121.751 74.7356 124.094 75.1138C124.241 75.1366 124.409 75.1645 124.596 75.195C124.782 75.2254 124.987 75.2559 125.211 75.2914C125.655 75.36 126.162 75.4361 126.698 75.5325C127.231 75.629 127.799 75.7432 128.358 75.9107C128.914 76.0757 129.462 76.294 129.944 76.5884C130.183 76.7381 130.408 76.9031 130.606 77.0884C130.804 77.2737 130.985 77.4691 131.129 77.6772C131.429 78.0909 131.612 78.53 131.736 78.9082C131.799 79.0985 131.837 79.2762 131.878 79.4335C131.908 79.5909 131.934 79.7279 131.952 79.8422C131.982 80.0706 132.002 80.1975 132.002 80.1975C132.002 80.1975 131.995 80.068 131.987 79.8396C131.977 79.7229 131.964 79.5833 131.947 79.4208C131.924 79.2609 131.898 79.0757 131.85 78.8777C131.761 78.4792 131.612 78.0071 131.332 77.5427C131.198 77.3092 131.025 77.0833 130.83 76.865C130.634 76.6493 130.406 76.4513 130.16 76.2686C129.667 75.9056 129.099 75.6265 128.528 75.4082C127.954 75.1899 127.376 75.0275 126.832 74.893C126.292 74.7584 125.784 74.6518 125.34 74.5605C125.117 74.5173 124.911 74.4767 124.723 74.4386C124.535 74.4057 124.368 74.3752 124.223 74.3498C121.891 73.9742 119.987 73.7534 119.944 73.9666Z" fill="#63686D"/>
<path d="M67.9677 102.657C67.9271 102.867 65.8053 102.593 63.2343 102.045C62.9678 101.989 62.6277 101.91 62.2546 101.827C61.8713 101.74 61.4297 101.654 60.95 101.537C60.4703 101.421 59.9526 101.281 59.4297 101.063C59.1683 100.959 58.9069 100.817 58.6556 100.662C58.4069 100.492 58.1709 100.289 57.9754 100.04L57.9881 100.053C57.7165 99.7302 57.5186 99.3571 57.3815 98.9815C57.2445 98.6008 57.181 98.2176 57.1328 97.847C57.0567 97.1059 57.082 96.4206 57.1074 95.8369C57.1379 95.2531 57.1683 94.7709 57.1734 94.4283C57.181 94.2582 57.1785 94.1262 57.181 94.0349C57.181 93.9435 57.181 93.8953 57.181 93.8953C57.181 93.8953 57.1836 93.9435 57.1912 94.0349C57.1988 94.1237 57.2115 94.2582 57.2191 94.4283C57.2394 94.7684 57.2495 95.2582 57.2673 95.8394C57.2876 96.4206 57.3155 97.0983 57.445 97.8013C57.516 98.149 57.6049 98.5044 57.7521 98.8343C57.9018 99.1642 58.0973 99.4688 58.3409 99.7252L58.3536 99.7378C58.5186 99.918 58.7191 100.07 58.9373 100.2C59.1658 100.319 59.3967 100.428 59.6429 100.507C60.1252 100.674 60.6252 100.778 61.0922 100.865C61.5617 100.951 62.0033 101.017 62.3993 101.088C62.8028 101.164 63.1327 101.233 63.4018 101.289C65.9652 101.834 68.0083 102.448 67.9677 102.657Z" fill="#63686D"/>
<path d="M58.7035 100.367C58.6883 100.388 58.701 100.428 58.7416 100.487C58.7822 100.542 58.8558 100.608 58.9548 100.692C59.1553 100.844 59.4751 101.032 59.8888 101.197C60.3025 101.362 60.8101 101.507 61.3684 101.636C61.9243 101.758 62.5309 101.89 63.1679 102.032C63.8101 102.169 64.8557 102.367 66.0613 102.586C67.2694 102.804 68.6324 103.06 69.9268 103.24C72.508 103.621 74.7643 103.954 74.7643 103.954C74.7643 103.954 72.5435 103.443 70.0004 102.86C68.7263 102.586 67.3862 102.235 66.1958 101.946C65.008 101.657 63.975 101.413 63.3354 101.273C63.0156 101.207 62.7009 101.141 62.3887 101.083C62.0791 101.027 61.7847 100.981 61.5055 100.936C60.9497 100.847 60.4573 100.763 60.0487 100.672C59.2339 100.499 58.7619 100.284 58.7035 100.367Z" fill="#63686D"/>
<path d="M94.0518 50.4795C94.0898 43.0887 94.3284 37.9999 100.11 32.7715C106.344 27.1345 112.559 25.9898 120.75 25.9771C131.234 25.9619 141.463 27.2664 151.952 27.2664C156.404 27.2664 161.254 27.8274 165.643 26.9923C170.645 26.0431 174.719 22.67 179 21C173.729 33.538 157.536 32.9669 157.536 32.9669C157.536 32.9669 159.508 35.3171 168.686 35.9973C152.003 42.8881 138.818 41.0404 138.818 41.0404C138.818 41.0404 139.721 46.8627 150.31 48.2333C150.178 48.2028 143.724 50.4033 133.64 50.1394C130.932 50.0683 127.838 49.4845 125.199 48.7764C121.1 47.68 117.483 45.5379 113.691 43.6699C110.123 41.9135 106.209 40.2587 102.224 41.6572C97.1431 43.4389 96.5847 47.7384 94.4807 51.7713L94.0518 50.4795Z" fill="#EF2B38"/>
<path d="M125.673 123.819C126.018 121.04 126.206 118.174 126.206 115.243C126.206 89.6821 112.422 68.9716 95.4146 68.9716C78.4097 68.9716 64.6357 89.6821 64.6357 115.243C64.6357 118.164 64.8108 121.032 65.1636 123.809C59.5596 116.621 56.1865 107.403 56.1865 97.3496C56.1865 74.3955 73.7574 55.7839 95.4146 55.7839C117.082 55.7839 134.65 74.3955 134.65 97.3496C134.65 107.413 131.285 116.631 125.673 123.819Z" fill="#7A7C81"/>
<path d="M100.146 66.3831C100.146 69.4897 98.0314 72.01 95.4198 72.01C92.8056 72.01 90.6914 69.4897 90.6914 66.3831V54.1269C90.6914 51.0177 92.8056 48.5 95.4198 48.5C98.0314 48.5 100.146 51.0177 100.146 54.1269V66.3831Z" fill="#7A7C81"/>
<path d="M131.584 74.5378C124.294 72.8602 103.449 68.2358 95.4191 68.2358C87.3861 68.2358 66.5411 72.8602 59.2518 74.5378C57.8356 74.8627 56.6224 76.4109 56.5361 77.9896L55.3864 99.3777C55.3026 100.959 56.3864 102.482 57.8077 102.784C65.8152 104.477 90.0866 109.489 95.4191 109.225C100.749 109.489 125.02 104.477 133.03 102.784C134.449 102.482 135.535 100.959 135.449 99.3777L134.302 77.9896C134.213 76.4109 133 74.8627 131.584 74.5378Z" fill="#BCBCBE"/>
<path d="M93.151 94.4689C93.151 96.8877 91.5038 98.8445 89.4759 98.8445C87.448 98.8445 85.8008 96.8877 85.8008 94.4689V82.7787C85.8008 80.365 87.448 78.4031 89.4759 78.4031C91.5038 78.4031 93.151 80.365 93.151 82.7787V94.4689Z" fill="#63686D"/>
<path d="M89.4752 97.4637C88.0869 97.4637 86.96 96.1186 86.96 94.4688V82.7786C86.96 81.1263 88.0869 79.7837 89.4752 79.7837C90.8609 79.7837 91.9904 81.1263 91.9904 82.7786V94.4688C91.9904 96.1186 90.8609 97.4637 89.4752 97.4637Z" fill="#3C3C3E"/>
<path d="M81.6627 94.4689C81.6627 96.8877 80.018 98.8445 77.9876 98.8445C75.9572 98.8445 74.3125 96.8877 74.3125 94.4689V82.7787C74.3125 80.365 75.9572 78.4031 77.9876 78.4031C80.018 78.4031 81.6627 80.365 81.6627 82.7787V94.4689Z" fill="#63686D"/>
<path d="M77.9879 97.4637C76.5996 97.4637 75.4727 96.1186 75.4727 94.4688V82.7786C75.4727 81.1263 76.5996 79.7837 77.9879 79.7837C79.3737 79.7837 80.5006 81.1263 80.5006 82.7786V94.4688C80.5006 96.1186 79.3737 97.4637 77.9879 97.4637Z" fill="#3C3C3E"/>
<path d="M70.1758 94.4689C70.1758 96.8877 68.5311 98.8445 66.5007 98.8445C64.4702 98.8445 62.8281 96.8877 62.8281 94.4689V82.7787C62.8281 80.365 64.4702 78.4031 66.5007 78.4031C68.5311 78.4031 70.1758 80.365 70.1758 82.7787V94.4689Z" fill="#63686D"/>
<path d="M66.5015 97.4637C65.1132 97.4637 63.9863 96.1186 63.9863 94.4688V82.7786C63.9863 81.1263 65.1132 79.7837 66.5015 79.7837C67.8873 79.7837 69.0168 81.1263 69.0168 82.7786V94.4688C69.0168 96.1186 67.8873 97.4637 66.5015 97.4637Z" fill="#3C3C3E"/>
<path d="M104.637 94.4689C104.637 96.8877 102.993 98.8445 100.962 98.8445C98.9343 98.8445 97.2871 96.8877 97.2871 94.4689V82.7787C97.2871 80.365 98.9343 78.4031 100.962 78.4031C102.993 78.4031 104.637 80.365 104.637 82.7787V94.4689Z" fill="#63686D"/>
<path d="M100.962 97.4637C99.5761 97.4637 98.4492 96.1186 98.4492 94.4688V82.7786C98.4492 81.1263 99.5761 79.7837 100.962 79.7837C102.348 79.7837 103.477 81.1263 103.477 82.7786V94.4688C103.477 96.1186 102.348 97.4637 100.962 97.4637Z" fill="#3C3C3E"/>
<path d="M116.125 94.4689C116.125 96.8877 114.477 98.8445 112.45 98.8445C110.422 98.8445 108.774 96.8877 108.774 94.4689V82.7787C108.774 80.365 110.422 78.4031 112.45 78.4031C114.477 78.4031 116.125 80.365 116.125 82.7787V94.4689Z" fill="#63686D"/>
<path d="M112.45 97.4637C111.064 97.4637 109.935 96.1186 109.935 94.4688V82.7786C109.935 81.1263 111.064 79.7837 112.45 79.7837C113.836 79.7837 114.965 81.1263 114.965 82.7786V94.4688C114.965 96.1186 113.836 97.4637 112.45 97.4637Z" fill="#3C3C3E"/>
<path d="M127.609 94.4689C127.609 96.8877 125.967 98.8445 123.937 98.8445C121.906 98.8445 120.262 96.8877 120.262 94.4689V82.7787C120.262 80.365 121.906 78.4031 123.937 78.4031C125.967 78.4031 127.609 80.365 127.609 82.7787V94.4689Z" fill="#63686D"/>
<path d="M123.937 97.4637C122.549 97.4637 121.422 96.1186 121.422 94.4688V82.7786C121.422 81.1263 122.549 79.7837 123.937 79.7837C125.323 79.7837 126.452 81.1263 126.452 82.7786V94.4688C126.452 96.1186 125.323 97.4637 123.937 97.4637Z" fill="#3C3C3E"/>
<path d="M151.269 30.5863C150.629 30.632 149.708 30.7157 148.576 30.7208C146.32 30.7893 143.244 30.6776 139.975 30.3781C136.703 30.0913 133.231 29.67 130.132 29.3883C129.393 29.3198 128.675 29.2614 127.987 29.2106C126.655 29.0914 125.185 29.0127 123.624 29.0051C123.267 29 122.927 28.9974 122.63 29.0025C122.599 29.0025 122.566 29.0051 122.536 29.0051C122.317 29.0076 122.089 29.0127 121.84 29.0228C121.071 29.0482 120.32 29.0939 119.594 29.1624C119.584 29.1624 119.576 29.1624 119.566 29.165C119.556 29.165 119.543 29.1675 119.533 29.1675C118.929 29.2259 118.338 29.2919 117.774 29.3756C117.685 29.3858 117.602 29.3934 117.51 29.4061C116.789 29.4873 116.036 29.6548 115.254 29.7868C115.059 29.8223 114.863 29.8578 114.665 29.8959C114.47 29.9441 114.274 29.9924 114.076 30.0431C113.68 30.1421 113.282 30.2436 112.878 30.3452C112.061 30.5482 111.274 30.769 110.452 31.0228C108.823 31.5253 107.188 32.1396 105.678 32.8984C104.165 33.6522 102.785 34.5583 101.653 35.5482C100.516 36.5329 99.6399 37.5938 98.9876 38.5354C98.3531 39.4948 97.9292 40.3298 97.6729 40.9237C97.4267 41.5202 97.2871 41.8527 97.2871 41.8527C97.2871 41.8527 97.4572 41.5354 97.7617 40.9694C98.0739 40.4085 98.5714 39.6243 99.2769 38.7537C100 37.8984 100.937 36.9618 102.104 36.1243C103.272 35.2842 104.655 34.5482 106.153 33.9593C107.65 33.3654 109.254 32.9137 110.858 32.5583C111.652 32.3807 112.482 32.2182 113.264 32.0863C113.658 32.0177 114.046 31.9517 114.429 31.8832C114.622 31.8502 114.81 31.8172 115 31.7842C115.191 31.7639 115.381 31.7436 115.569 31.7233C116.198 31.6624 116.797 31.5837 117.386 31.533C118.97 31.4289 120.751 31.3451 122.663 31.3274C122.67 31.3274 122.68 31.3274 122.685 31.3248C122.731 31.3274 122.784 31.3248 122.83 31.3248C124.505 31.3071 126.107 31.3096 127.564 31.3071C128.343 31.3147 129.162 31.3274 130.023 31.3451C133.102 31.4086 136.612 31.5406 139.924 31.538C143.236 31.5507 146.345 31.368 148.601 31.0812C149.733 30.9695 150.647 30.7944 151.282 30.6853C151.916 30.5761 152.271 30.5152 152.271 30.5152C152.271 30.5152 151.911 30.5406 151.269 30.5863Z" fill="#C41F26"/>
<path d="M80.2497 62.4923C80.1533 62.2918 81.9883 61.2791 84.4629 60.5938C85.0796 60.4289 86.0898 60.2004 87.2649 60.0075C88.44 59.8324 89.775 59.67 91.0364 59.6091C91.6659 59.5608 92.2775 59.5583 92.8359 59.538C93.3968 59.5278 93.9095 59.5355 94.341 59.5355C95.2039 59.5583 95.7547 59.5761 95.7547 59.5761C95.7547 59.5761 95.2064 59.6065 94.3435 59.6547C93.9146 59.6903 93.407 59.7334 92.8511 59.7816C92.2978 59.8476 91.6938 59.8984 91.0745 59.9948C89.8334 60.1497 88.5288 60.4085 87.3842 60.6497C86.2446 60.9085 85.27 61.1801 84.6659 61.3425C82.2599 62.0075 80.336 62.6776 80.2497 62.4923Z" fill="#A9ADB1"/>
<path d="M89.11 60.0326C89.0846 59.8194 87.0034 59.9159 84.5238 60.5758C84.2192 60.6646 83.8182 60.789 83.3537 60.9362C82.8918 61.0935 82.369 61.2915 81.8131 61.5021C81.539 61.6214 81.2573 61.7433 80.9679 61.8676C80.8258 61.9311 80.6786 61.9945 80.5339 62.058C80.3893 62.129 80.2446 62.2001 80.1025 62.2712C79.8131 62.4133 79.5238 62.558 79.2345 62.7026C78.9527 62.86 78.671 63.0199 78.3969 63.1747C78.1177 63.3245 77.8538 63.4894 77.6 63.6544C77.3436 63.8194 77.0974 63.9767 76.8588 64.1265C76.4045 64.4564 75.9883 64.7559 75.6355 65.0097C74.9655 65.5554 74.5391 65.9031 74.5391 65.9031C74.5391 65.9031 74.9934 65.5935 75.7066 65.1062C76.0746 64.8854 76.5111 64.624 76.9883 64.3346C77.2345 64.2052 77.4908 64.0681 77.7548 63.9285C78.0187 63.7864 78.2903 63.6443 78.5746 63.5174C78.8588 63.3854 79.1456 63.2509 79.4324 63.1163C79.7268 62.9945 80.0213 62.8752 80.3157 62.7559C80.4603 62.695 80.6075 62.6367 80.7522 62.5757C80.8994 62.5224 81.0466 62.4717 81.1888 62.4184C81.4806 62.3169 81.7649 62.2153 82.039 62.1164C82.5948 61.9438 83.1151 61.7763 83.572 61.6443C84.0339 61.5199 84.4273 61.4108 84.7268 61.3219C87.1405 60.6798 89.1379 60.2433 89.11 60.0326Z" fill="#A9ADB1"/>
<path d="M128.398 75.6468C128.363 75.7508 127.886 75.6823 127.129 75.5757C126.371 75.464 125.317 75.3295 124.152 75.1189C123.569 75.0123 122.63 74.8168 121.548 74.5833C120.47 74.3397 119.244 74.1037 118.109 73.7737C115.84 73.157 113.855 72.6189 113.855 72.6189C113.855 72.6189 115.878 72.9818 118.19 73.3955C119.34 73.629 120.581 73.7712 121.67 73.9412C122.759 74.1011 123.701 74.2483 124.282 74.3549C125.447 74.5656 126.505 74.7889 127.254 75.0427C128.005 75.2915 128.434 75.5478 128.398 75.6468Z" fill="#A9ADB1"/>
<path d="M119.944 73.9563C119.901 74.167 121.759 74.6822 124.094 75.1086C124.675 75.2203 125.622 75.3421 126.695 75.5325C127.761 75.7279 128.972 75.9969 129.941 76.5908C130.419 76.8929 130.83 77.2634 131.127 77.6771C131.208 77.7761 131.259 77.8929 131.325 77.9944C131.381 78.101 131.457 78.1949 131.495 78.3066C131.576 78.5223 131.683 78.7152 131.731 78.9081C131.784 79.1035 131.832 79.2786 131.875 79.4335C131.906 79.5908 131.924 79.7304 131.944 79.8421C131.98 80.0705 132.002 80.1974 132.002 80.1974C132.002 80.1974 131.992 80.068 131.977 79.8395C131.969 79.7253 131.962 79.5832 131.947 79.4208C131.916 79.2609 131.883 79.0781 131.848 78.8776C131.815 78.6746 131.726 78.4665 131.66 78.2355C131.629 78.1187 131.561 78.0121 131.51 77.8954C131.452 77.7812 131.406 77.6568 131.332 77.5451C131.056 77.0781 130.647 76.6365 130.157 76.2685C129.162 75.5426 127.909 75.1645 126.832 74.8929C125.749 74.6264 124.802 74.4563 124.223 74.3447C121.903 73.9208 119.987 73.7482 119.944 73.9563Z" fill="#A9ADB1"/>
<path d="M67.9677 102.657C67.9271 102.867 65.8053 102.593 63.2343 102.045C62.7013 101.928 61.8967 101.748 60.95 101.537C60.4703 101.421 59.9526 101.281 59.4297 101.063C59.1683 100.959 58.9069 100.817 58.6556 100.662C58.4069 100.492 58.1709 100.289 57.9754 100.04L57.9881 100.053C57.7165 99.7302 57.5186 99.3571 57.3815 98.9815C57.2445 98.6008 57.181 98.2176 57.1328 97.847C57.0567 97.1059 57.082 96.4206 57.1074 95.8369C57.1379 95.2531 57.1683 94.7684 57.1734 94.4283C57.1836 94.0882 57.181 93.8953 57.181 93.8953C57.181 93.8953 57.2013 94.0882 57.2191 94.4283C57.2394 94.7684 57.2495 95.2557 57.2673 95.8394C57.2876 96.4206 57.3155 97.1008 57.445 97.8013C57.516 98.149 57.6049 98.5044 57.7521 98.8343C57.9018 99.1642 58.0973 99.4688 58.3409 99.7252L58.3536 99.7378C58.5186 99.918 58.7191 100.07 58.9373 100.2C59.1658 100.319 59.3967 100.428 59.6429 100.507C60.1252 100.674 60.6252 100.778 61.0922 100.865C61.5693 100.946 62.0109 101.022 62.3993 101.088C62.8028 101.164 63.1327 101.233 63.4018 101.289C65.9652 101.834 68.0083 102.448 67.9677 102.657Z" fill="#A9ADB1"/>
<path d="M58.704 100.367C58.633 100.454 59.0518 100.867 59.8893 101.197C60.303 101.362 60.8106 101.507 61.369 101.636C61.9248 101.758 62.5314 101.893 63.1685 102.032C63.8106 102.169 64.8563 102.367 66.0619 102.586C67.27 102.804 68.6329 103.06 69.9273 103.24C72.5085 103.621 74.7648 103.954 74.7648 103.954C74.7648 103.954 72.5415 103.443 70.0009 102.86C68.7268 102.586 67.3867 102.235 66.1964 101.946C65.0086 101.657 63.9756 101.413 63.336 101.273C63.0162 101.207 62.7015 101.141 62.3893 101.083C62.0797 101.027 61.7852 100.981 61.5061 100.936C60.9502 100.847 60.4578 100.763 60.0492 100.672C59.2345 100.499 58.7624 100.284 58.704 100.367Z" fill="#A9ADB1"/>
<path d="M114.592 122.008C114.66 120.709 113.125 119.575 111.164 119.473C109.203 119.37 107.559 120.338 107.491 121.637C107.423 122.936 109.203 120.03 111.164 120.132C113.125 120.235 114.524 123.307 114.592 122.008Z" fill="#343A46"/>
<path d="M75.8703 122.165C75.8024 120.866 77.3366 119.732 79.2979 119.63C81.2591 119.527 82.9035 120.495 82.9714 121.794C83.0392 123.093 81.2591 120.553 79.2979 120.656C77.3366 120.758 75.9381 123.464 75.8703 122.165Z" fill="#343A46"/>
<path d="M123.28 122.336C116.023 130.391 120.007 145.79 132.171 156.749C144.336 167.708 160.067 170.07 167.324 162.014C174.581 153.959 163.34 146.612 151.175 135.653C139.011 124.695 130.537 114.28 123.28 122.336Z" fill="#593B9B"/>
<path d="M65.396 118.943C74.1183 125.384 73.2983 141.269 63.5725 154.441C53.8468 167.612 38.8902 173.062 30.1821 166.632C21.4761 160.204 31.0057 150.746 40.7315 137.575C50.461 124.428 56.6899 112.514 65.396 118.943Z" fill="#593B9B"/>
</svg>
