<svg width="28" height="22" viewBox="0 0 28 22" fill="none" xmlns="http://www.w3.org/2000/svg">
<path d="M24.6516 9.41151C24.4279 9.23813 24.1563 9.12663 23.8676 9.08972C23.579 9.05281 23.285 9.09197 23.0192 9.20275L18.0734 11.2449L15.1997 6.4345C15.0623 6.20991 14.8633 6.02314 14.623 5.89321C14.3826 5.76328 14.1094 5.69482 13.8313 5.69482C13.5531 5.69482 13.28 5.76328 13.0396 5.89321C12.7992 6.02314 12.6002 6.20991 12.4629 6.4345L9.58918 11.2449L4.64332 9.20275C4.37698 9.09214 4.08262 9.05292 3.79352 9.08953C3.50442 9.12613 3.23212 9.2371 3.00739 9.4099C2.78267 9.58269 2.61448 9.81042 2.52184 10.0673C2.4292 10.3242 2.41581 10.6001 2.48317 10.8637L4.96588 20.6933C5.01335 20.8836 5.10194 21.063 5.22627 21.2205C5.3506 21.3781 5.50808 21.5106 5.68918 21.61C5.93437 21.7463 6.2147 21.8184 6.50046 21.8187C6.63937 21.8185 6.77756 21.8002 6.91099 21.7643C11.4364 20.6025 16.2164 20.6025 20.7418 21.7643C21.155 21.8652 21.5944 21.8097 21.9636 21.61C22.1458 21.5119 22.3042 21.3797 22.4286 21.222C22.5531 21.0642 22.6411 20.8842 22.6869 20.6933L25.1794 10.8637C25.246 10.6 25.2319 10.3243 25.1386 10.0677C25.0453 9.81106 24.8766 9.58378 24.6516 9.41151Z" fill="#FF9900"/>
<circle cx="13.8304" cy="3.25426" r="3.25426" fill="#FF9900"/>
<circle cx="13.8308" cy="14.6443" r="2.44069" fill="#FFC700"/>
<circle cx="25.6272" cy="8.54221" r="2.03391" fill="#FF9900"/>
<circle cx="2.03391" cy="8.54221" r="2.03391" fill="#FF9900"/>
<circle cx="7.72865" cy="15.8644" r="1.22035" fill="#FFC700"/>
<circle cx="19.9323" cy="15.8644" r="1.22035" fill="#FFC700"/>
</svg>
